<svg width="39" height="38" viewBox="0 0 39 38" fill="none" xmlns="http://www.w3.org/2000/svg">
<path d="M19.1137 0.481247C19.295 0.541253 19.4811 0.590237 19.6574 0.663714C20.5698 1.03845 21.487 1.40705 22.3883 1.8075C22.6837 1.94554 23.0102 2.003 23.335 1.97405C24.3404 1.89322 25.3482 1.85159 26.3561 1.8075C26.9584 1.76626 27.5323 2.06931 27.8378 2.59003C28.0571 2.92802 28.2873 3.25989 28.5249 3.58686C28.7624 3.91383 29.0772 4.04609 29.5254 3.96282C31.3549 3.62727 33.1992 3.44971 35.0484 3.80117C35.7231 3.92975 36.3783 4.1906 37.0261 4.43552C37.5551 4.63635 37.7915 5.08089 37.8662 5.63074C38.0484 7.03507 38.0282 8.45828 37.8062 9.85687C37.6556 10.85 37.3947 11.8273 37.1657 12.807C37.1216 12.9931 37.0702 13.1413 37.2135 13.3127C38.7553 15.1619 38.6585 17.1715 37.7817 19.2533C37.129 20.8098 36.1579 22.163 35.1671 23.5039C32.3224 27.3664 28.9755 30.7622 25.4229 33.9646C24.7959 34.5303 24.1616 35.09 23.4929 35.6043C22.0724 36.6967 20.4755 37.3274 18.6569 37.2992C17.5548 37.2821 16.5298 36.9526 15.555 36.4542C14.1271 35.7194 12.8302 34.7924 11.5664 33.8176C8.87229 31.7358 6.33 29.4862 4.07059 26.9365C3.1754 25.9275 2.38675 24.8118 1.56993 23.7281C1.14597 23.1495 0.838594 22.494 0.664943 21.7981C0.616752 21.6695 0.555184 21.5464 0.481251 21.4307V19.2264C0.546155 19.0843 0.620856 18.9459 0.67229 18.799C0.902517 18.1438 1.06662 17.458 1.36297 16.8335C3.96037 11.3521 7.65992 6.72677 12.322 2.86924C13.5748 1.83322 14.977 1.03845 16.5837 0.664939C16.7698 0.620853 16.9511 0.542478 17.1286 0.486145L19.1137 0.481247ZM11.9448 31.0243C11.9865 31.0586 12.0293 31.0916 12.0673 31.1247L12.2743 31.2349C12.359 31.3654 12.4612 31.4836 12.578 31.5864C13.635 32.3089 14.7896 32.8771 16.0069 33.2739C16.6303 33.4893 17.3096 33.4784 17.9258 33.2433C19.2876 32.7338 20.5588 32.1301 21.2323 30.7243C21.2635 30.6584 21.3008 30.5957 21.3437 30.5369C21.7601 29.9452 22.4121 29.5625 23.1317 29.4874C23.8554 29.4078 24.5877 29.4029 25.3176 29.3649C26.0058 29.3319 26.6365 29.12 27.0321 28.5395C27.2917 28.155 27.4496 27.6909 27.5966 27.2451C27.8219 26.5618 28.2469 26.1136 28.9437 25.9324C29.22 25.8437 29.503 25.7774 29.7899 25.734C31.4749 25.5797 32.6763 24.6318 33.5862 23.3166C34.1764 22.4692 34.6393 21.5237 35.0753 20.5845C35.7506 19.1693 36.2348 17.6708 36.5154 16.1281C36.6612 15.2807 36.2044 14.4308 35.3227 14.4798C35.3472 14.3573 35.3655 14.2349 35.3998 14.1124C35.6447 13.2344 35.9166 12.3612 36.1566 11.4807C36.6257 9.75768 36.8632 8.02118 36.5559 6.23202C36.4567 5.65523 36.1885 5.35275 35.6423 5.23274C34.6483 4.99451 33.6237 4.90944 32.604 4.98047C30.9582 5.12008 29.338 5.34785 27.7791 5.91362C27.6474 5.95292 27.5137 5.98522 27.3786 6.01037C27.3786 5.57318 27.4092 5.18743 27.3786 4.80902C27.2721 3.71667 27.0112 3.42521 26.1871 3.27704C25.3298 3.12396 24.4187 3.04191 23.5689 3.17294C21.1992 3.54033 19.0537 4.50532 17.1335 5.95036C16.6253 6.33244 16.133 6.73656 15.5881 7.16518C15.0749 6.53573 14.3634 6.56144 13.7046 6.67533C12.8955 6.81678 12.1011 7.03199 11.3313 7.31825C8.85259 8.22941 6.6718 9.804 5.02701 11.8701C3.14845 14.2263 1.9765 16.8555 2.1308 19.9526C2.1603 20.5197 2.29832 21.076 2.53737 21.5911C2.74854 22.1128 3.2284 22.4771 3.7877 22.5402C4.14039 22.7606 4.49798 22.9761 4.84577 23.2039C6.39527 24.2 7.82662 25.3688 9.11231 26.6879C9.27286 26.8272 9.44679 26.9503 9.63155 27.0553L9.73809 27.2782L9.84463 27.495C9.95974 27.7399 10.0687 27.9909 10.1887 28.2297C10.6431 29.1519 10.9358 30.1671 11.733 30.8896L11.9412 31.0218L11.9448 31.0243Z" fill="#4CB6CD"/>
<path d="M12.2792 31.2349L12.0722 31.1247L11.9497 31.0243L11.7416 30.892C10.9443 30.1695 10.6517 29.1543 10.1973 28.2322C10.0749 27.9873 9.96832 27.7423 9.8532 27.4974L9.74666 27.2807L9.63155 27.0553C9.62446 26.9831 9.60884 26.912 9.58501 26.8435C9.10742 25.8564 8.64819 24.8584 8.13875 23.8885C7.82183 23.3104 7.47309 22.7503 7.09415 22.2108C6.5394 21.3939 6.09487 21.3315 5.32704 21.923C5.24132 21.9891 5.14702 22.0454 5.06252 22.1152C4.7028 22.4061 4.25 22.557 3.7877 22.5402C3.22823 22.4777 2.74788 22.1139 2.53615 21.5923C2.29736 21.0767 2.15976 20.5201 2.1308 19.9526C1.9765 16.8568 3.14846 14.2275 5.02701 11.8701C6.66911 9.80653 8.84586 8.23295 11.3203 7.3207C12.0901 7.03444 12.8845 6.81923 13.6936 6.67778C14.3586 6.55532 15.0639 6.53328 15.577 7.16763C16.122 6.73901 16.6143 6.33489 17.1225 5.95281C19.0427 4.50287 21.1882 3.54278 23.5578 3.17539C24.4077 3.04436 25.3213 3.12641 26.1761 3.27949C27.0063 3.42766 27.2611 3.71912 27.3676 4.81148C27.4043 5.18988 27.3676 5.57563 27.3676 6.01282C27.5027 5.98767 27.6364 5.95537 27.768 5.91607C29.327 5.34663 30.952 5.12253 32.593 4.98292C33.6127 4.91189 34.6373 4.99696 35.6313 5.23519C36.1799 5.35765 36.4456 5.65768 36.5448 6.23447C36.8522 8.02363 36.6146 9.76013 36.1456 11.4832C35.9007 12.3637 35.6399 13.2368 35.3888 14.1149C35.3545 14.2373 35.3361 14.3598 35.3117 14.4822C35.2351 14.6231 35.1677 14.7687 35.1096 14.9182C34.6056 16.4669 33.9595 17.9656 33.1796 19.3954C32.2195 21.1564 30.8528 22.4569 28.8347 22.8941C27.7325 23.139 27.1104 22.97 26.7528 21.8201C26.6821 21.5365 26.5904 21.2586 26.4785 20.9886C26.3561 20.7437 26.1626 20.5281 25.9226 20.1914C25.827 20.4792 25.7634 20.6249 25.7303 20.7755C25.6078 21.3278 25.5491 21.8948 25.385 22.4324C25.0176 23.6338 24.6085 24.8229 24.2032 26.0132C24.055 26.4504 23.744 26.6598 23.2688 26.7418C22.5461 26.849 21.8111 26.8428 21.0902 26.7235C20.2869 26.612 20.0248 26.3891 19.7836 25.6213C19.6408 25.1505 19.4606 24.6919 19.2448 24.2497C18.8878 23.5292 18.2471 22.9897 17.4764 22.7606C17.4348 23.297 17.3821 23.7856 17.3601 24.2755C17.3135 25.3543 17.3001 26.4344 17.2376 27.5121C17.1739 28.6143 16.8335 29.6503 16.3412 30.6471C15.8232 31.6978 14.7749 31.9195 13.9495 31.7358C13.385 31.606 12.8351 31.4039 12.2792 31.2349ZM34.7704 8.75228C34.8046 8.64795 34.8284 8.54047 34.8414 8.43143C34.8696 7.28519 34.5438 6.80882 33.3278 6.76596H33.2176C32.1987 6.74024 31.219 6.94107 30.2393 7.20926C29.2241 7.48848 28.2591 7.88525 27.4558 8.59063C27.3156 8.70061 27.2175 8.85537 27.1778 9.02904C27.0419 10.4006 26.9329 11.7697 26.8104 13.1401C26.7149 13.843 26.6198 14.5459 26.5251 15.2488C26.4112 16.0987 26.3022 16.9511 26.181 17.8009C26.1393 18.0899 26.192 18.2847 26.503 18.3936C26.9733 18.559 27.2978 18.9153 27.5378 19.3378C27.7276 19.6709 27.8954 20.0187 28.0522 20.3689C28.1746 20.658 28.3301 20.7547 28.6853 20.7033C29.4022 20.6155 30.0521 20.2386 30.4842 19.6599C30.9569 19.0329 31.4309 18.39 31.775 17.6895C32.7051 15.8233 33.4959 13.8909 34.1409 11.9081C34.4716 10.8794 34.7704 9.84463 34.7704 8.75228ZM25.3752 7.41378C25.3862 6.85045 25.4388 6.28346 25.3948 5.72381C25.3568 5.25846 25.0494 5.00619 24.5792 4.98904C24.1774 4.96508 23.7742 4.99182 23.379 5.06864C20.7412 5.67483 18.5026 7.00475 16.569 8.87719C16.389 9.05231 16.3583 9.20661 16.4147 9.45765C16.6094 10.3308 16.771 11.2113 16.9278 12.093C17.0417 12.7396 17.1262 13.3911 17.2241 14.0401C17.2241 14.1871 17.2241 14.3341 17.2241 14.481C17.2976 16.4053 17.3727 18.3291 17.4495 20.2526C17.4599 20.313 17.4768 20.3721 17.4997 20.4289C17.7054 20.4841 17.9185 20.533 18.1267 20.6004C19.4738 21.0327 20.3371 21.9793 20.9433 23.2211C21.1185 23.6021 21.3465 23.9567 21.6205 24.2742C21.9377 24.6245 22.2757 24.5865 22.6345 24.2742C23.0245 23.9312 23.2937 23.4718 23.4023 22.9639C23.6178 21.9842 23.7991 20.9935 23.9595 20.0028C24.1914 18.5773 24.4044 17.1486 24.5988 15.7166C24.7433 14.6476 24.8437 13.5723 24.9661 12.4984C25.0715 11.5187 25.178 10.539 25.2613 9.5495C25.3127 8.83922 25.3409 8.1265 25.3752 7.41378ZM15.0064 11.9448C14.8655 11.2101 14.7786 10.4606 14.5692 9.74054C14.3243 8.89066 13.8258 8.64941 12.9772 8.85759C12.6719 8.92523 12.3768 9.03226 12.0991 9.17599C11.0888 9.72707 10.0638 10.2622 9.09762 10.8831C7.03415 12.202 5.57441 14.0524 4.59962 16.291C4.21142 17.185 3.93955 18.1157 3.94323 19.0953C3.91996 19.7897 4.04242 19.9354 4.70739 19.8742C5.01569 19.843 5.31572 19.7558 5.59278 19.617C5.96751 19.4297 5.96751 19.2496 5.67116 18.957C5.58543 18.87 5.51563 18.7684 5.43603 18.6729C5.5989 18.3765 5.80341 18.3055 6.09854 18.3826C6.95577 18.5896 7.67829 19.0023 8.16691 19.7297C8.65877 20.4362 9.10032 21.1765 9.48827 21.945C10.2083 23.4476 10.8427 24.9906 11.5321 26.5079C11.8738 27.2574 12.2314 28.0032 12.6343 28.7232C12.9467 29.2904 13.592 29.5883 14.2263 29.458C14.8704 29.3502 15.1558 28.9033 15.2586 28.324C15.3803 27.7337 15.4548 27.1346 15.4815 26.5324C15.5109 24.2048 15.5166 21.8781 15.4987 19.5521C15.4901 18.2504 15.4558 16.9474 15.3762 15.6481C15.2893 14.4149 15.1301 13.1792 15.0064 11.9412V11.9448Z" fill="#4E4040"/>
<path d="M12.2792 31.2349C12.8351 31.4039 13.3813 31.6023 13.9508 31.7321C14.7761 31.9158 15.8244 31.6942 16.3424 30.6434C16.8323 29.6466 17.1752 28.6155 17.2388 27.5084C17.3013 26.4308 17.3148 25.3507 17.3613 24.2718C17.3833 23.7819 17.436 23.2921 17.4776 22.7569C18.2484 22.9861 18.889 23.5256 19.246 24.2461C19.4618 24.6882 19.642 25.1468 19.7848 25.6176C20.0297 26.3891 20.2881 26.612 21.0915 26.7198C21.8123 26.8392 22.5473 26.8454 23.27 26.7381C23.7452 26.6561 24.0562 26.4467 24.2044 26.0095C24.6098 24.8192 25.0188 23.6301 25.3862 22.4287C25.5503 21.8911 25.614 21.3266 25.7315 20.7718C25.7646 20.6212 25.8283 20.4755 25.9238 20.1877C26.1687 20.5245 26.3573 20.7363 26.4798 20.9849C26.5917 21.2549 26.6833 21.5329 26.7541 21.8164C27.1215 22.9663 27.7338 23.1329 28.8359 22.8904C30.859 22.4471 32.2207 21.1527 33.1808 19.3917C33.9607 17.962 34.6068 16.4632 35.1108 14.9145C35.1689 14.7651 35.2364 14.6195 35.3129 14.4786C36.1946 14.4296 36.6514 15.2795 36.5057 16.1269C36.225 17.6696 35.7408 19.1681 35.0655 20.5833C34.6295 21.5225 34.1666 22.4679 33.5764 23.3154C32.6628 24.6257 31.4615 25.5784 29.7801 25.7327C29.4932 25.7762 29.2102 25.8425 28.9339 25.9311C28.2371 26.1124 27.8121 26.5606 27.5868 27.2439C27.4399 27.6897 27.2819 28.1538 27.0223 28.5383C26.6304 29.12 25.9997 29.3307 25.3078 29.3637C24.573 29.398 23.8456 29.4029 23.1219 29.4862C22.4023 29.5613 21.7503 29.944 21.3339 30.5357C21.291 30.5945 21.2537 30.6572 21.2225 30.723C20.5514 32.1289 19.2803 32.7326 17.916 33.2421C17.2998 33.4772 16.6205 33.4881 15.9971 33.2727C14.7798 32.8759 13.6252 32.3076 12.5682 31.5852C12.4567 31.4818 12.3595 31.364 12.2792 31.2349ZM3.7877 22.5402C4.24958 22.5567 4.70189 22.4058 5.0613 22.1152C5.1458 22.0467 5.24009 21.9928 5.32581 21.923C6.09364 21.3315 6.53818 21.3939 7.09293 22.2108C7.47175 22.7491 7.82048 23.3079 8.13752 23.8848C8.64696 24.8547 9.10619 25.8528 9.58379 26.8398C9.60761 26.9083 9.62323 26.9794 9.63032 27.0516C9.44556 26.9466 9.27163 26.8235 9.11109 26.6843C7.82578 25.3652 6.39484 24.1964 4.84577 23.2002C4.4992 22.9761 4.14161 22.7606 3.7877 22.5402Z" fill="#3479B7"/>
<path d="M9.63374 27.0553L9.76968 27.2782L9.63374 27.0553ZM9.74151 27.2745L9.87745 27.4913L9.74151 27.2745Z" fill="#017B8F"/>
<path d="M11.7342 30.8908L11.9424 31.0471L11.7342 30.8908ZM11.9448 31.0273L12.1011 31.1555L11.9448 31.0273Z" fill="#E27B11"/>
<path d="M15.0064 11.9412C15.1288 13.1792 15.2893 14.4149 15.3738 15.6542C15.457 16.9535 15.4962 18.2565 15.4962 19.5582C15.5117 21.8875 15.506 24.2142 15.4791 26.5385C15.4524 27.1407 15.3778 27.7398 15.2562 28.3301C15.1533 28.9094 14.868 29.3564 14.2238 29.4641C13.5895 29.5944 12.9443 29.2966 12.6318 28.7294C12.2338 28.0093 11.8763 27.2598 11.5297 26.514C10.8402 24.9967 10.2059 23.4525 9.48582 21.9511C9.09787 21.1826 8.65632 20.4424 8.16446 19.7358C7.67462 19.001 6.9472 18.5908 6.0961 18.3887C5.80586 18.3177 5.59645 18.3826 5.43358 18.679C5.51318 18.7745 5.58298 18.8761 5.66871 18.9631C5.96506 19.2594 5.96506 19.4358 5.59033 19.6232C5.31327 19.7619 5.01324 19.8491 4.70494 19.8803C4.03997 19.9416 3.91751 19.7958 3.94078 19.1015C4.11222 18.9533 4.33633 18.8357 4.44287 18.6508C4.91924 17.8303 5.36378 16.9902 5.81566 16.1563C6.09732 15.6346 6.49654 15.506 6.97782 15.8562C7.34979 16.1509 7.70353 16.4678 8.03711 16.8053C8.73758 17.4617 9.51521 17.8107 10.4753 17.4176C11.1578 17.1409 11.7566 16.6914 12.213 16.1134C13.2564 14.7994 14.2863 13.4719 15.0064 11.9412ZM25.3752 7.41377C25.336 8.1265 25.3127 8.83922 25.2527 9.55072C25.1694 10.5304 25.0629 11.5174 24.9576 12.4996C24.8437 13.5736 24.7396 14.6488 24.5902 15.7179C24.3967 17.1498 24.1836 18.5786 23.9509 20.004C23.7905 20.9947 23.6093 21.9842 23.3937 22.9651C23.2851 23.473 23.0159 23.9324 22.6259 24.2755C22.2671 24.5902 21.9291 24.6281 21.6119 24.2755C21.3379 23.9579 21.11 23.6034 20.9347 23.2223C20.3334 21.9805 19.4652 21.0339 18.1181 20.6016C17.9099 20.5343 17.6968 20.4853 17.4911 20.4302C17.4682 20.3733 17.4514 20.3142 17.4409 20.2538C17.365 18.3304 17.2899 16.4065 17.2156 14.4822C17.2156 14.3353 17.2156 14.1883 17.2156 14.0414C17.9614 14.5165 18.3655 14.5006 18.9582 13.9005C20.111 12.7461 21.2482 11.5795 22.37 10.4006C23.0986 9.63399 23.7832 8.82453 24.513 8.06037C24.7592 7.80565 25.0861 7.62808 25.3752 7.41377ZM34.7704 8.75227C34.7704 9.84463 34.4691 10.8794 34.1397 11.9081C33.4946 13.8909 32.7038 15.8233 31.7738 17.6895C31.4296 18.39 30.9557 19.0366 30.483 19.6599C30.0497 20.2397 29.3978 20.6168 28.6792 20.7033C28.324 20.7547 28.1746 20.6579 28.046 20.3689C27.8893 20.0187 27.7215 19.6709 27.5317 19.3378C27.2868 18.9153 26.9672 18.559 26.4969 18.3936C26.1859 18.2847 26.1295 18.0899 26.1748 17.8009C26.2973 16.951 26.4051 16.0987 26.5189 15.2488C26.6153 14.5475 26.7124 13.8446 26.8104 13.1401C26.8876 13.4523 26.9329 13.7891 27.4092 13.9618C27.5317 13.8087 27.6542 13.6213 27.8011 13.4609C28.6884 12.5092 29.6652 11.6451 30.7181 10.8806C31.9636 9.97811 33.2739 9.18334 34.7704 8.75227Z" fill="#D8A87C"/>
<path d="M15.0064 11.9412C14.2863 13.4719 13.2564 14.7994 12.2155 16.1146C11.7591 16.6927 11.1603 17.1421 10.4778 17.4189C9.51766 17.8095 8.74003 17.4605 8.03956 16.8065C7.70598 16.4691 7.35224 16.1521 6.98027 15.8575C6.49899 15.5072 6.09977 15.6358 5.81811 16.1575C5.36623 16.9915 4.92169 17.8315 4.44532 18.652C4.33878 18.837 4.11468 18.9545 3.94323 19.1027C3.94323 18.1144 4.21142 17.1874 4.59962 16.2934C5.57931 14.0548 7.03415 12.2045 9.09762 10.8794C10.0638 10.2561 11.0888 9.72094 12.0991 9.17599C12.3753 9.03308 12.6688 8.92647 12.9723 8.85882C13.8295 8.65063 14.3194 8.89188 14.5643 9.74176C14.7786 10.4569 14.8655 11.2064 15.0064 11.9412ZM25.3752 7.41377C25.0862 7.62808 24.7629 7.80565 24.5179 8.06282C23.7832 8.82698 23.1035 9.63644 22.3749 10.4031C21.2499 11.5828 20.1159 12.7494 18.9729 13.903C18.3802 14.5031 17.9761 14.5153 17.2303 14.0438C17.1323 13.3948 17.0478 12.7433 16.9339 12.0967C16.7772 11.215 16.6155 10.3345 16.4208 9.46132C16.3645 9.2164 16.3951 9.05598 16.5751 8.88086C18.5026 7.00843 20.7412 5.6785 23.3815 5.07232C23.7766 4.9955 24.1798 4.96875 24.5816 4.99272C25.0519 5.00619 25.3592 5.25846 25.3972 5.72748C25.4388 6.28346 25.3862 6.84923 25.3752 7.41377ZM34.7704 8.75227C33.2715 9.18334 31.9611 9.97689 30.712 10.8806C29.6599 11.6456 28.6839 12.5101 27.7974 13.4621C27.6468 13.6226 27.5244 13.8099 27.4056 13.963C26.9255 13.7903 26.8839 13.4536 26.8067 13.1413C26.9329 11.7697 27.0419 10.4006 27.1778 9.02904C27.2162 8.85605 27.3126 8.70138 27.4509 8.59063C28.2542 7.88525 29.2192 7.48847 30.2344 7.20926C31.2141 6.94107 32.1938 6.74024 33.2163 6.76473H33.3266C34.5426 6.80759 34.8683 7.28396 34.8402 8.4302C34.8277 8.53961 34.8043 8.6475 34.7704 8.75227Z" fill="#FCE3C2"/>
</svg>
