<svg width="39" height="40" viewBox="0 0 39 40" fill="none" xmlns="http://www.w3.org/2000/svg">
<path d="M0.481247 23.8239V21.7237C0.527175 21.651 0.568091 21.5753 0.603708 21.4971C0.971092 20.5027 1.24296 19.4606 1.71443 18.5201C3.97202 14.0166 7.04126 9.96847 10.768 6.57889C12.0318 5.42163 13.3397 4.33663 14.9047 3.60431C16.3939 2.90751 17.9381 2.66503 19.5644 2.98221C19.8115 3.01899 20.0639 2.99417 20.2991 2.90996C22.9394 2.01231 25.6164 1.25795 28.3816 0.842811C28.8947 0.76566 29.4029 0.652996 29.9123 0.556252H32.5661C32.8196 0.638301 33.0767 0.713002 33.3278 0.801174C33.9303 1.01793 34.4238 1.37552 34.5279 2.04415C34.779 3.63615 35.0386 5.22815 35.2088 6.83606C35.4182 8.81748 35.2847 10.8001 34.9933 12.7681C34.9418 13.1134 35.0459 13.3424 35.2847 13.5922C35.9705 14.3082 36.6355 15.043 37.2796 15.7965C37.8066 16.4147 38.164 17.159 38.3169 17.9568C38.552 19.1361 38.3279 20.2578 37.9152 21.3551C37.3592 22.8246 36.4885 24.1239 35.5774 25.3963C32.2709 30.0082 28.2848 33.9881 24.0109 37.6914C23.5492 38.0879 23.0515 38.4405 22.5243 38.7445C20.9837 39.6459 19.3305 40.0353 17.5523 39.6801C16.2322 39.4156 15.0798 38.7678 13.9752 38.0306C10.324 35.5819 6.99578 32.6829 4.06936 29.402C2.59983 27.7573 1.1058 26.0784 0.524108 23.8435C0.526558 23.8324 0.497167 23.8239 0.481247 23.8239ZM29.9172 24.3774L30.0213 24.1325C30.5393 22.6825 31.1333 21.2534 31.5582 19.7765C32.5293 16.3991 33.0865 12.9346 33.4098 9.44081C33.5911 7.48143 33.4919 5.52205 32.9433 3.59574C32.7583 2.94792 32.3763 2.63442 31.748 2.57196C31.4375 2.53484 31.1239 2.53074 30.8124 2.55972C29.5376 2.70544 28.2493 2.80464 26.9916 3.04956C20.991 4.21662 15.8232 7.00261 11.3387 11.1185C9.11109 13.1624 7.37581 15.5455 6.27244 18.3695C5.93812 19.2267 5.59033 20.0986 5.68095 21.0354C5.91118 23.4063 6.99128 25.3216 8.88943 26.7678C9.09139 26.896 9.30308 27.0082 9.52256 27.1034L9.49194 26.4678C10.0712 27.0507 10.6896 27.6006 11.2211 28.2239C11.7526 28.8472 11.8701 29.6016 11.6252 30.3951C11.2884 31.4606 11.6044 32.3545 12.3673 33.1003C13.1303 33.8461 13.9275 34.5404 14.7259 35.2409C16.1526 36.4925 17.8279 37.3228 19.5693 38.0208C20.1387 38.2498 20.7412 38.3465 21.3217 38.0269C21.5965 37.8802 21.859 37.7114 22.1067 37.5224C23.2419 36.6382 24.1591 35.5434 25.091 34.4609C26.6708 32.6239 27.9615 30.5997 28.8004 28.3292C29.2743 27.0471 29.5535 25.6939 29.9209 24.3725L29.9172 24.3774Z" fill="#FDB610"/>
<path d="M29.9197 24.3688C29.5523 25.6902 29.2731 27.0434 28.7992 28.3255C27.9603 30.596 26.6696 32.6117 25.0898 34.4572C24.1579 35.5434 23.2407 36.6382 22.1054 37.5187C21.8578 37.7077 21.5953 37.8765 21.3205 38.0232C20.74 38.3429 20.1375 38.2461 19.568 38.0171C17.8266 37.3154 16.1514 36.4888 14.7247 35.2373C13.9263 34.5368 13.1327 33.8363 12.3661 33.0966C11.5995 32.357 11.2872 31.4606 11.6252 30.3951C11.8701 29.6016 11.7477 28.8448 11.2211 28.2178C10.6945 27.5908 10.0712 27.0446 9.49194 26.4617C9.36948 26.0796 9.25559 25.6963 9.12456 25.3155C8.87964 24.588 8.57961 23.8741 8.38979 23.132C8.05547 21.8645 7.91954 20.5774 8.29917 19.2867C8.44445 20.209 8.75961 21.0964 9.22865 21.9037C9.80142 22.9146 10.7165 23.6877 11.8089 24.0835C12.1457 24.206 12.3894 24.1398 12.611 23.8386C13.0298 23.2655 13.483 22.718 13.9226 22.1609C14.0034 23.7455 14.7859 24.9775 15.844 25.1538L15.7987 24.7778C16.3804 24.9762 16.9008 24.8158 17.3907 24.495C17.6772 24.3076 17.9577 24.1104 18.2418 23.9182C18.3385 23.9182 18.4867 23.9549 18.5271 23.9059C19.4884 22.8528 20.2269 21.6771 20.2257 20.199C20.2257 19.3222 20.1167 18.4454 20.0371 17.5698C19.982 16.9575 19.8779 16.3452 20.282 15.8223C20.8943 15.0459 21.4968 14.2572 22.1863 13.5555C22.906 12.8383 23.8135 12.3387 24.8045 12.1141C25.3911 11.9721 25.7278 12.1497 25.936 12.6897C26.0094 12.8774 26.056 13.0744 26.0744 13.2751C26.1307 13.9217 26.1687 14.5707 26.2177 15.2822L26.4993 14.8916C26.454 15.5982 26.4406 16.3097 26.3536 17.0126C26.1552 18.6132 25.6091 20.1219 25.0604 21.6281C24.9091 21.7814 24.7688 21.9451 24.6404 22.118C23.8411 23.3335 22.8194 24.3872 21.6291 25.2236C20.6714 25.9033 19.6011 26.2498 18.4145 26.1433C18.1059 26.1151 17.8022 26.0147 17.496 25.9829C17.3454 25.9682 17.1029 25.9829 17.0527 26.0784C16.9804 26.2008 17.027 26.4152 17.06 26.5829C17.0977 26.6864 17.1555 26.7813 17.2303 26.8621C17.7458 27.5969 18.4316 28.0341 19.3354 28.1088L18.7904 28.7982C19.1921 29.4179 19.7897 29.5832 20.4228 29.4938C21.1576 29.3897 21.885 29.1718 22.6149 29.004L24.9612 28.459C24.5081 28.9354 24.0844 29.4448 23.5958 29.8796C21.9573 31.3369 20.064 32.237 17.8462 32.3423C17.1898 32.3729 16.5298 32.3129 15.8722 32.2957C15.3407 32.2835 15.1656 32.548 15.4203 33.0121C15.5271 33.226 15.6758 33.4163 15.8575 33.5718C16.449 34.031 17.049 34.4829 17.6772 34.8919C18.3422 35.3242 19.0243 35.2764 19.6893 34.8356C20.6212 34.2159 21.5789 33.6342 22.4924 32.9913C25.2772 31.0319 27.5746 28.6182 29.2278 25.6228C29.4572 25.2007 29.6878 24.7827 29.9197 24.3688Z" fill="#E37C11"/>
<path d="M29.9197 24.3688C29.6886 24.7827 29.4576 25.1971 29.2266 25.6118C27.5709 28.6072 25.2735 31.0209 22.4912 32.9803C21.5776 33.6232 20.62 34.2049 19.6881 34.8246C19.0243 35.2654 18.341 35.3144 17.676 34.8809C17.0478 34.4719 16.4514 34.0237 15.8562 33.5608C15.6746 33.4053 15.5259 33.215 15.4191 33.0011C15.1643 32.537 15.3395 32.2725 15.8709 32.2847C16.5286 32.3019 17.1886 32.3619 17.845 32.3313C20.0628 32.2259 21.956 31.3258 23.5946 29.8686C24.0844 29.4338 24.5069 28.9244 24.96 28.448L25.0825 28.3366C25.7805 27.3348 26.5618 26.3772 27.1643 25.3228C28.4752 23.042 29.4109 20.5652 29.9356 17.9874C30.0206 17.8123 30.0931 17.6314 30.1524 17.4461C30.7869 14.9562 31.139 12.4027 31.2019 9.83391C31.2251 8.79054 31.2019 7.74105 31.1247 6.70013C31.028 5.35306 30.4708 4.86321 29.1298 4.94771C27.6088 5.02125 26.102 5.27656 24.6416 5.70819C21.6658 6.62788 18.9729 8.10231 16.4649 9.91473C15.2403 10.805 14.0867 11.8068 12.9 12.7583C11.0578 14.3221 9.57096 16.2615 8.53919 18.4466C8.41673 18.7074 8.37509 19.005 8.29427 19.2867C7.91464 20.5774 8.04934 21.8645 8.38489 23.132C8.5796 23.8741 8.87473 24.588 9.11965 25.3155C9.24824 25.6963 9.36458 26.0796 9.48704 26.4617L9.51765 27.0973C9.2999 27.0023 9.08986 26.8905 8.88943 26.7629C6.99128 25.3179 5.91117 23.4014 5.68094 21.0305C5.59032 20.0937 5.93811 19.2181 6.27243 18.3646C7.37458 15.5406 9.11108 13.1575 11.3387 11.1136C15.8232 6.99771 20.9947 4.21172 26.9916 3.04466C28.2493 2.79974 29.5376 2.70422 30.8124 2.55482C31.1238 2.52584 31.4375 2.52994 31.748 2.56706C32.3763 2.62952 32.7583 2.94302 32.9432 3.59084C33.4919 5.51348 33.5911 7.47408 33.4098 9.43591C33.0865 12.9297 32.5293 16.3942 31.5582 19.7716C31.1333 21.2485 30.5393 22.6776 30.0213 24.1276L29.9172 24.3725L29.9197 24.3688Z" fill="#4F403F"/>
<path d="M29.9198 24.3725L30.0526 24.1276L29.9198 24.3725Z" fill="#E27B11"/>
<path d="M8.29672 19.2928C8.3751 19.0111 8.41918 18.7136 8.54164 18.4527C9.56907 16.27 11.0503 14.3315 12.8866 12.7669C12.8084 13.0864 12.7463 13.4097 12.7004 13.7355C12.6282 14.4899 12.9319 14.8303 13.6801 14.872C13.8262 14.8816 13.9728 14.8746 14.1173 14.8511C14.9807 14.6981 15.8514 14.5683 16.7037 14.3686C17.7348 14.1237 18.7512 13.8212 19.7738 13.5433C18.7757 14.5364 17.7507 15.5026 16.7845 16.5276C15.2795 18.1196 14.2471 19.9663 13.9201 22.1608C13.4805 22.718 13.0274 23.263 12.6086 23.8386C12.3869 24.1435 12.1432 24.206 11.8065 24.0835C10.714 23.6877 9.79897 22.9146 9.2262 21.9037C8.75788 21.0982 8.44274 20.213 8.29672 19.2928ZM29.9197 17.9898C29.395 20.5677 28.4593 23.0444 27.1484 25.3252C26.5508 26.3833 25.7695 27.3373 25.0666 28.339L24.9441 28.4505L22.5977 28.9954C21.863 29.1644 21.1453 29.3824 20.4057 29.4853C19.7726 29.5746 19.1749 29.4093 18.7733 28.7897L19.3182 28.1002C20.3982 27.9556 21.3981 27.4518 22.1569 26.6699C23.3819 25.4525 24.3319 23.9868 24.9429 22.3715C25.031 22.1437 25.0127 21.8816 25.0433 21.6257C25.5919 20.1194 26.1381 18.6107 26.3365 17.0101C26.4234 16.3072 26.4369 15.5957 26.4822 14.8891C26.5936 14.6062 26.7039 14.3246 26.8153 14.0429C27.8023 14.2792 28.6008 14.7899 29.0612 15.712C29.3196 16.2276 29.4862 16.7897 29.6882 17.3334C29.7825 17.5477 29.8474 17.7706 29.9197 17.9898Z" fill="#FDB610"/>
<path d="M26.8288 14.0417C26.7173 14.3233 26.6071 14.605 26.4957 14.8879L26.214 15.2785C26.165 14.567 26.1271 13.918 26.0707 13.2714C26.0523 13.0707 26.0057 12.8737 25.9324 12.686C25.7242 12.146 25.3874 11.9684 24.8008 12.1105C23.8098 12.335 22.9023 12.8346 22.1826 13.5518C21.4931 14.2535 20.8894 15.0422 20.2783 15.8186C19.8705 16.3378 19.9746 16.9599 20.0334 17.5661C20.113 18.4417 20.2208 19.3185 20.222 20.1953C20.222 21.6735 19.4872 22.8491 18.5235 23.9022C18.4781 23.9512 18.3349 23.912 18.2381 23.9145C18.3814 23.5006 18.5455 23.0916 18.6643 22.6715C19.0461 21.3986 18.9988 20.0353 18.5296 18.7919C18.3447 18.3021 18.1255 18.16 17.763 18.3805C16.591 19.0956 15.7142 20.0827 15.5011 21.4677C15.3432 22.5781 15.4455 23.7101 15.7999 24.7742L15.8452 25.1501C14.7872 24.9726 14.0083 23.7418 13.9238 22.1572C14.2508 19.9602 15.2831 18.116 16.7882 16.524C17.7483 15.4965 18.7757 14.5303 19.7738 13.5371C19.9379 13.4147 20.1069 13.3094 20.2636 13.1832C21.7944 11.9488 23.5346 11.1014 25.3617 10.4156C25.9568 10.1927 26.5692 10.0066 27.3211 10.0739C27.3211 10.4548 27.3639 10.8209 27.3125 11.1761C27.1704 12.1325 26.9916 13.0853 26.8288 14.0417Z" fill="#4F403F"/>
<path d="M15.7962 24.7742C15.4418 23.7101 15.3395 22.5781 15.4974 21.4677C15.7105 20.0827 16.5873 19.0957 17.7593 18.3805C18.1267 18.16 18.341 18.3021 18.5259 18.7919C18.9951 20.0354 19.0425 21.3986 18.6606 22.6715C18.5381 23.0916 18.3777 23.5006 18.2344 23.9145C17.9503 24.1068 17.6699 24.3039 17.3833 24.4913C16.891 24.8121 16.3779 24.9726 15.7962 24.7742Z" fill="#AD5F70"/>
<path d="M25.0567 21.6196C25.0261 21.8645 25.0445 22.1376 24.9563 22.3654C24.3453 23.9807 23.3953 25.4464 22.1703 26.6637C21.4115 27.4457 20.4116 27.9495 19.3317 28.0941C18.4279 28.0194 17.7397 27.5773 17.2266 26.8474C17.1519 26.7666 17.094 26.6717 17.0564 26.5682C17.0233 26.4005 16.9768 26.1911 17.049 26.0637C17.0992 25.9743 17.3417 25.9535 17.4923 25.9682C17.8009 26 18.1046 26.1004 18.4108 26.1286C19.5974 26.2351 20.6677 25.8837 21.6254 25.2089C22.8152 24.3743 23.8368 23.3228 24.6367 22.1094C24.7651 21.9365 24.9055 21.7728 25.0567 21.6196Z" fill="#50413E"/>
<path d="M26.8288 14.0417C26.9916 13.0853 27.1704 12.1325 27.3088 11.1736C27.3602 10.8209 27.3174 10.4548 27.3174 10.0715C26.5691 10.0041 25.9568 10.1939 25.358 10.4132C23.5346 11.0989 21.7895 11.9451 20.2636 13.1832C20.1069 13.3057 19.9379 13.4196 19.7738 13.5371C18.7512 13.8151 17.7348 14.1201 16.7037 14.3625C15.8464 14.5621 14.9806 14.6919 14.1173 14.845C13.9728 14.8685 13.8262 14.8754 13.6801 14.8658C12.9294 14.8242 12.6257 14.4838 12.7004 13.7294C12.7463 13.4036 12.8084 13.0803 12.8866 12.7607C14.0732 11.8092 15.2219 10.8014 16.4514 9.91718C18.9594 8.10476 21.6523 6.63033 24.6281 5.71064C26.0885 5.27901 27.5953 5.0237 29.1163 4.95016C30.4573 4.86811 31.0145 5.35061 31.1112 6.70258C31.1847 7.7435 31.2116 8.79299 31.1884 9.83636C31.1255 12.4051 30.7734 14.9586 30.1389 17.4485C30.0796 17.6339 30.0072 17.8148 29.9221 17.9898C29.8499 17.7706 29.785 17.5477 29.7042 17.3322C29.5021 16.7885 29.3368 16.2301 29.0771 15.7108C28.6142 14.7887 27.8158 14.278 26.8288 14.0417Z" fill="#FCE3C2"/>
<path d="M24.9551 28.4827L25.1114 28.3405L24.9551 28.4827Z" fill="#E27B11"/>
</svg>
