<svg width="38" height="42" viewBox="0 0 38 42" fill="none" xmlns="http://www.w3.org/2000/svg">
<path d="M15.7537 18.6392C15.7811 17.6655 15.2758 17.018 14.2005 16.6655C14.093 16.6655 13.9866 16.6512 13.8791 16.6524C12.2244 16.6691 10.8815 17.3203 9.98304 18.7157C9.28412 19.8017 9.75604 20.883 11.001 21.2044C11.9281 21.4428 12.9099 21.3419 13.7692 20.92C14.2566 20.5616 14.768 20.2318 15.222 19.8352C15.5616 19.5306 15.7551 19.0955 15.7537 18.6392Z" fill="white"/>
<path d="M36.2554 18.2521C35.0133 16.7416 33.6215 15.3606 32.1013 14.1303C30.4956 12.8435 28.8301 11.6285 27.1909 10.3824C27.038 10.2629 26.8839 10.153 26.7274 10.0347C27.1575 9.5819 27.5852 9.17688 27.9603 8.72049C28.8122 7.70257 29.0894 6.50304 28.9615 5.20436C28.9054 4.63447 28.5864 4.28202 28.0141 4.19361C27.6618 4.13922 27.3031 4.14285 26.952 4.20436C25.6151 4.45287 24.3654 4.9451 23.2937 5.79098C22.8217 6.16374 22.4394 6.6488 21.9902 7.1052L19.3618 5.93913C19.2996 5.46123 19.259 4.92121 19.1539 4.39791C18.9568 3.46394 18.6354 2.56062 18.1981 1.71213C17.9893 1.299 17.7011 0.931149 17.3498 0.629688H16.7047C15.7719 1.07059 15.0274 1.83034 14.6055 2.77186C13.995 4.05502 13.6401 5.4003 13.799 6.86027C13.2841 7.20675 12.768 7.55681 12.2196 7.92479C12.1145 7.76469 12.0081 7.60938 11.9066 7.44689C11.0129 6.02276 9.68913 5.18405 8.11207 4.73363C7.30682 4.50424 6.6975 4.83877 6.39164 5.61655C6.25273 5.98396 6.1647 6.36865 6.12999 6.75991C5.94003 8.6954 6.32235 10.4636 7.70108 11.9296C7.7347 11.9738 7.76429 12.021 7.78949 12.0705C7.23035 12.7504 6.66285 13.4158 6.11685 14.1016C4.52747 16.088 3.1275 18.2187 1.93525 20.466C1.36178 21.564 0.859983 22.6835 0.588777 23.8985C0.575635 23.9738 0.48125 24.0467 0.48125 24.1112V26.1542C0.48125 26.1757 0.544571 26.1936 0.54935 26.2187C0.820557 27.644 1.67599 28.7504 2.51231 29.8698C4.31637 32.2832 6.5159 34.3095 8.76082 36.2916C10.3072 37.6812 11.9637 38.943 13.7142 40.0646C14.464 40.5501 15.2561 40.9668 16.081 41.3095C18.1216 42.1267 20.0906 41.7934 21.9568 40.73C22.47 40.4373 22.9537 40.0956 23.4012 39.7097C27.2459 36.386 30.866 32.8423 33.9257 28.7659C34.6569 27.7918 35.3498 26.791 36.0045 25.7635C36.6755 24.7444 37.1406 23.6039 37.3737 22.4063C37.6581 20.8388 37.2674 19.4684 36.2554 18.2521ZM22.5159 9.95466C22.5159 7.84474 23.6939 6.27126 25.7811 5.63208C26.2412 5.48671 26.7123 5.37883 27.1897 5.3095C27.7871 5.22706 28.038 5.50185 27.891 6.09444C27.8048 6.45851 27.6613 6.80654 27.4657 7.12551C26.4856 8.65459 25.1406 9.91587 23.5517 10.7958C23.5207 10.8137 23.4896 10.8328 23.4585 10.8483C22.7967 11.1721 22.5541 11.0263 22.5171 10.2772C22.5159 10.1697 22.5207 10.0682 22.5207 9.95466H22.5159ZM16.0045 2.66673C16.2196 2.36207 16.4275 1.99408 16.8815 2.06935C17.3176 2.14701 17.4478 2.53889 17.5577 2.89612C17.6837 3.28598 17.7772 3.68559 17.8373 4.09086C17.9126 4.63925 17.9353 5.196 17.9771 5.70137C17.9078 6.96899 17.7525 8.17091 17.3295 9.32622C17.2826 9.46143 17.2271 9.59352 17.1634 9.72168C16.9723 10.0801 16.7489 10.1159 16.4466 9.82801C16.369 9.75457 16.2979 9.67463 16.2339 9.58907C14.7656 7.63686 14.4992 4.81129 16.0129 2.67031L16.0045 2.66673ZM7.33908 7.28799C7.36999 6.9867 7.41866 6.68749 7.48483 6.39193C7.56369 6.10161 7.78471 6.00723 8.07145 6.11236C8.23963 6.17286 8.40005 6.25307 8.54935 6.35131C9.93167 7.27485 10.8588 8.52336 11.2471 10.153C11.3415 10.5532 11.4478 10.9511 11.5159 11.3561C11.6163 11.9535 11.3319 12.2044 10.7823 11.9786C8.5601 11.0717 7.35102 9.64402 7.33908 7.28799ZM26.8349 33.8113C26.0057 34.6476 25.21 35.5269 24.2339 36.2091C23.1221 37.0031 21.8282 37.5044 20.4717 37.6667C20.0464 37.7169 19.6198 37.7504 19.1933 37.7742C18.0356 37.8364 16.9233 37.5855 15.8086 37.3107C15.549 37.2417 15.3004 37.1363 15.0703 36.9977C14.9508 36.926 14.7823 36.73 14.8086 36.6452C14.8824 36.4928 15.0101 36.3732 15.167 36.3095C15.3512 36.2414 15.5423 36.1938 15.7369 36.1673C17.357 35.8089 18.9926 35.5102 20.5924 35.0813C22.6987 34.5162 24.774 33.8495 26.8683 33.2283C26.9333 33.2132 26.9991 33.2025 27.0655 33.196L27.1587 33.2975C27.0535 33.4684 26.9759 33.6715 26.8349 33.8137V33.8113ZM31.4836 23.5688C30.2172 25.6249 29.0356 27.7384 27.4824 29.6022C25.7859 31.6333 23.6139 32.8591 21.0631 33.4648C19.6294 33.8065 18.1682 34.0001 16.6975 33.8806C13.7859 33.6416 11.1539 32.736 8.98185 30.6643C7.50873 29.2653 6.35819 27.6309 5.22796 25.975C4.89224 25.4839 4.75007 24.9152 4.93286 24.3358C5.59117 22.3107 6.21602 20.2737 6.96393 18.282C7.58431 16.5914 8.58024 15.0636 9.87671 13.8137C11.4789 12.2808 13.2781 11.0658 15.5016 10.6333C16.2351 10.4911 16.9878 10.4409 17.3845 10.3943C21.1885 10.4648 24.0918 11.8077 26.5159 14.2175C27.7513 15.4457 28.627 16.9188 29.2841 18.5293C29.719 19.595 30.2614 20.5986 31.0499 21.4564C31.2468 21.6894 31.4078 21.9503 31.5278 22.2306C31.7519 22.6529 31.735 23.1622 31.4836 23.5688Z" fill="#FDB610"/>
<path d="M31.0488 21.4553C30.2602 20.5974 29.7178 19.5938 29.2829 18.5281C28.6258 16.9176 27.7501 15.4445 26.5147 14.2163C24.0906 11.8053 21.1873 10.4624 17.3833 10.3931C16.9866 10.4421 16.2339 10.4923 15.5004 10.6321C13.2769 11.0658 11.4729 12.2808 9.87551 13.8137C8.57904 15.0636 7.58311 16.5914 6.96273 18.282C6.21602 20.2737 5.59117 22.3107 4.93167 24.3358C4.74409 24.9152 4.89105 25.4839 5.22677 25.975C6.35819 27.6309 7.50873 29.2653 8.97587 30.6643C11.1479 32.736 13.7799 33.6428 16.6915 33.8806C18.1623 34.0001 19.6198 33.8065 21.0571 33.4648C23.6079 32.8591 25.7799 31.6297 27.4765 29.6022C29.0356 27.7384 30.2172 25.6249 31.4836 23.5688C31.7347 23.162 31.751 22.6527 31.5266 22.2306C31.4067 21.9499 31.2457 21.6886 31.0488 21.4553ZM24.13 29.5711C22.3809 30.7934 20.4024 31.4314 18.2817 31.6667C15.7011 31.9547 13.3833 31.331 11.3343 29.7384C11.2541 29.6691 11.1775 29.5958 11.1049 29.5186C9.36058 28.0849 8.27097 26.2593 7.99021 24.0072C7.65807 21.3429 8.54218 18.9893 10.0213 16.8459C11.2339 15.0861 12.8229 13.7802 14.8934 13.1518C18.7262 11.9869 23.6485 13.251 26.259 17.521C27.0791 18.8493 27.5918 20.3441 27.7596 21.8961C27.7704 22.0927 27.7704 22.2897 27.7596 22.4863C27.8182 25.4971 26.5744 27.8615 24.13 29.5711Z" fill="#4D403F"/>
<path d="M26.8695 33.2235C24.7787 33.8447 22.6999 34.5114 20.5936 35.0765C18.9938 35.5054 17.3582 35.8053 15.7381 36.1625C15.5435 36.189 15.3524 36.2367 15.1682 36.3047C15.0113 36.3684 14.8836 36.4881 14.8098 36.6404C14.7835 36.7253 14.9484 36.9212 15.0715 36.9929C15.3016 37.1315 15.5502 37.2369 15.8098 37.3059C16.9209 37.5807 18.0368 37.8316 19.1945 37.7695C19.621 37.7456 20.0476 37.7121 20.4729 37.6619C21.8288 37.5018 23.1226 37.003 24.2351 36.2115C25.2112 35.5293 26.0069 34.6524 26.8361 33.8137C26.9771 33.6715 27.0547 33.4684 27.1611 33.2928L27.0679 33.1912C27.0011 33.1976 26.9349 33.2084 26.8695 33.2235Z" fill="#E37C11"/>
<path d="M16.449 9.84116C16.7536 10.1291 16.9771 10.0968 17.1658 9.73483C17.2295 9.60666 17.285 9.47458 17.3319 9.33937C17.7548 8.18405 17.9102 6.98214 17.9795 5.71452C17.9376 5.20914 17.9149 4.65239 17.8397 4.104C17.782 3.69567 17.6905 3.29285 17.5661 2.8997C17.4562 2.54128 17.3271 2.1506 16.8899 2.07294C16.4358 1.99289 16.228 2.36087 16.0129 2.67031C14.5028 4.81368 14.7692 7.63686 16.2399 9.59982C16.3026 9.68607 16.3726 9.76681 16.449 9.84116ZM23.4633 10.8483C23.4944 10.8328 23.5255 10.8137 23.5565 10.7958C25.1454 9.91588 26.4904 8.65459 27.4705 7.12551C27.666 6.80655 27.8096 6.45851 27.8958 6.09444C28.0428 5.49707 27.7967 5.22706 27.1945 5.3095C26.717 5.37883 26.246 5.48671 25.7859 5.63208C23.6987 6.27127 22.5171 7.84474 22.5207 9.95466C22.5207 10.0622 22.5207 10.1697 22.5207 10.2772C22.5589 11.024 22.8014 11.1721 23.4633 10.8483ZM10.7799 11.9797C11.3295 12.2056 11.6163 11.9487 11.5135 11.3573C11.4454 10.9523 11.3391 10.5544 11.2447 10.1542C10.8564 8.52455 9.93047 7.27605 8.54696 6.35251C8.39766 6.25427 8.23724 6.17406 8.06906 6.11356C7.78232 6.00842 7.5613 6.10281 7.48244 6.39313C7.41627 6.68869 7.3676 6.98789 7.33669 7.28919C7.35102 9.64403 8.5601 11.0717 10.7799 11.9797Z" fill="#4C4040"/>
<path d="M23.7955 19.4959C22.5744 19.2689 21.3474 19.3358 20.1276 19.5425C19.8994 19.5819 19.6676 19.5986 19.437 19.6261C19.811 22.2068 19.903 24.7862 19.3904 27.3585C19.283 27.8827 19.1381 28.3986 18.9568 28.9021C18.6557 29.7575 17.8325 30.0013 17.1037 29.4612C16.8931 29.2957 16.7055 29.1028 16.5458 28.8878C15.1001 27.0263 14.2423 24.914 13.8731 22.595C12.5589 23.8256 11.6031 25.2772 11.1611 27.0383C10.9902 27.7145 10.9137 28.3991 11.0906 29.0932C11.111 29.2341 11.1158 29.3767 11.1049 29.5186C11.1775 29.5958 11.2541 29.6692 11.3343 29.7384C13.3845 31.3346 15.7011 31.9547 18.2829 31.6667C20.4036 31.4278 22.3821 30.7934 24.1312 29.5711C26.5756 27.8615 27.8194 25.4971 27.7644 22.4875C27.4789 22.0371 27.2351 21.5532 26.8994 21.1446C26.1013 20.1721 24.9962 19.7181 23.7955 19.4959Z" fill="#FD8917"/>
<path d="M27.7596 21.8961C27.592 20.3437 27.0793 18.8484 26.259 17.5198C23.6485 13.2498 18.7321 11.9857 14.8934 13.1506C12.8229 13.7802 11.2339 15.0861 10.0225 16.8459C8.54218 18.9965 7.65807 21.3429 7.99141 24.0072C8.27217 26.2593 9.36178 28.0801 11.1061 29.5186C11.117 29.3767 11.1122 29.2341 11.0918 29.0932C10.9149 28.3991 10.9914 27.7145 11.1623 27.0383C11.6043 25.2772 12.5589 23.8256 13.8743 22.595C13.8409 22.0375 13.8078 21.4799 13.7752 20.9224C12.9159 21.3443 11.9341 21.4452 11.0069 21.2067C9.76201 20.8854 9.29009 19.8041 9.98902 18.7181C10.8875 17.3226 12.2304 16.6715 13.8851 16.6548C13.9926 16.6548 14.0989 16.6631 14.2065 16.6679C14.3253 16.0694 14.5822 15.5069 14.9568 15.0251C15.1662 14.7593 15.4172 14.529 15.6999 14.3429C16.3044 13.9523 16.9137 13.9977 17.4 14.5293C17.7691 14.9392 18.0795 15.3984 18.3223 15.8937C18.9066 17.0705 19.1658 18.3537 19.4382 19.6285C19.6688 19.601 19.9006 19.5843 20.1288 19.5449C21.3486 19.3382 22.5756 19.2713 23.7967 19.4983C24.9974 19.7205 26.1025 20.1745 26.903 21.147C27.2387 21.5556 27.4824 22.0395 27.768 22.4899C27.7761 22.292 27.7733 22.0937 27.7596 21.8961Z" fill="#FDB919"/>
<path d="M16.5458 28.8878C16.7055 29.1028 16.8931 29.2957 17.1037 29.4612C17.8325 30.0013 18.6569 29.7575 18.9568 28.9021C19.1381 28.3986 19.283 27.8827 19.3904 27.3585C19.903 24.7862 19.811 22.2068 19.437 19.6261C19.1646 18.3513 18.9054 17.0682 18.3212 15.8913C18.0783 15.396 17.7679 14.9369 17.3988 14.5269C16.9126 13.9953 16.3032 13.9499 15.6987 14.3406C15.416 14.5266 15.165 14.7569 14.9556 15.0228C14.581 15.5045 14.3241 16.067 14.2053 16.6655C15.2805 17.018 15.7811 17.6655 15.7584 18.6392C15.7607 19.0943 15.5691 19.5288 15.2315 19.834C14.7775 20.2306 14.2662 20.5604 13.7787 20.9188C13.8122 21.4764 13.8452 22.0339 13.8779 22.5915C14.2423 24.914 15.1001 27.0263 16.5458 28.8878Z" fill="#4E3F3F"/>
</svg>
