<svg width="24" height="24" viewBox="0 0 24 24" fill="none" xmlns="http://www.w3.org/2000/svg">
<path d="M18 0H6C2.68629 0 0 2.68629 0 6V18C0 21.3137 2.68629 24 6 24H18C21.3137 24 24 21.3137 24 18V6C24 2.68629 21.3137 0 18 0Z" fill="#3A3F50"/>
<path d="M12 18.591C12 18.591 4.53 16.152 4.53 10.863C4.53049 9.98826 4.81211 9.13684 5.3333 8.43433C5.85449 7.73182 6.58767 7.21541 7.42468 6.96128C8.26169 6.70715 9.15821 6.72876 9.98201 7.02291C10.8058 7.31707 11.5133 7.8682 12 8.595C12.4867 7.8682 13.1942 7.31707 14.018 7.02291C14.8418 6.72876 15.7383 6.70715 16.5753 6.96128C17.4123 7.21541 18.1455 7.73182 18.6667 8.43433C19.1879 9.13684 19.4695 9.98826 19.47 10.863C19.47 16.152 12 18.591 12 18.591" fill="#3AC279"/>
</svg>
