<svg width="41" height="49" viewBox="0 0 41 49" fill="none" xmlns="http://www.w3.org/2000/svg">
<path d="M0.556244 20.5191V14.8995C0.589823 14.8419 0.647386 14.7867 0.653382 14.7268C0.733732 13.9041 0.796092 13.0838 0.883637 12.2575C1.06112 10.665 1.34534 9.09635 1.96295 7.60449C2.74126 5.72288 4.1 4.52724 6.09674 4.09791C6.53566 4.01299 6.98206 3.97281 7.4291 3.97798C7.83904 3.97181 8.21278 4.21184 8.3777 4.5872C8.61754 5.08608 8.88018 5.58137 9.08525 6.09704C9.68487 7.5901 9.9547 9.1671 10.2845 10.7321C10.5451 11.9793 10.8305 13.2205 11.1407 14.4558C11.3554 15.2952 11.9286 15.7461 12.8113 15.8145C13.0602 15.8521 13.3123 15.7709 13.4925 15.595C14.8296 14.3238 16.2855 13.2241 18.0196 12.543C18.0628 12.3691 18.1131 12.2144 18.1395 12.0561C18.5414 9.64655 19.1321 7.27234 19.906 4.95537C20.5656 2.96702 21.8428 1.5867 23.9259 1.04824C23.9522 1.04104 23.9678 0.996671 23.9894 0.970287H25.6084C25.9274 1.06863 26.2428 1.17656 26.5678 1.2641C27.8965 1.62387 28.5753 2.55688 28.7264 3.85806C28.8168 4.71409 28.834 5.57627 28.778 6.43523C28.7072 7.70763 28.5381 8.97402 28.4482 10.2464C28.4267 10.7112 28.4532 11.177 28.5273 11.6363C28.5933 12.116 28.9171 12.4015 29.374 12.507C29.687 12.5789 30.0204 12.5646 30.3334 12.6389C30.728 12.7336 31.1729 12.7936 31.4871 13.0179C32.6288 13.8274 33.3267 14.8803 33.0281 16.3757C33.0137 16.4465 33.0065 16.5185 32.9981 16.5892C32.9082 17.2824 32.8182 17.9743 32.7259 18.6927L33.2751 19.122C34.9613 20.4412 36.5791 21.8371 38.0289 23.4177C38.9883 24.4622 39.9609 25.5032 40.2475 26.9698C40.2475 26.9806 40.2775 26.9878 40.2931 26.9962V28.8311C40.2547 28.885 40.1936 28.9342 40.1804 28.9942C39.8374 30.528 39.1011 31.8783 38.2268 33.1603C34.7946 38.2067 30.5517 42.5072 25.9298 46.4503C24.9548 47.2842 23.787 47.8613 22.5323 48.1293C22.4031 48.166 22.2768 48.2125 22.1546 48.2684H20.1039C20.0679 48.2324 20.0367 48.1748 19.9947 48.1652C18.4489 47.8342 17.1453 47.0128 15.867 46.1373C13.0979 44.2425 10.6203 42.0047 8.23619 39.6614C6.80904 38.241 5.52154 36.6868 4.39142 35.0203C3.88654 34.2876 3.48599 33.4997 3.37806 32.6111C3.28692 31.8579 3.05906 31.1564 2.8348 30.438C1.91259 27.4939 1.00596 24.5414 0.740927 21.4437C0.696719 21.1323 0.635061 20.8236 0.556244 20.5191ZM23.012 32.3916C22.9473 32.4228 22.8837 32.4564 22.819 32.4864C22.0047 32.8581 21.8812 32.8269 21.3475 32.1038C20.911 31.5138 20.4636 30.9309 20.0547 30.3229C19.8544 30.0267 19.6386 29.9631 19.3268 30.0831C19.0413 30.185 18.7499 30.269 18.4609 30.3613C17.9117 29.8432 17.366 29.3228 16.8132 28.8083C16.2603 28.2938 15.8454 27.675 15.7686 26.9135C15.6995 26.1989 15.6794 25.4805 15.7087 24.7632C15.771 23.0387 15.8813 21.3154 15.9485 19.5909C15.9677 19.1004 15.9149 18.5859 15.4556 18.2861C15.0429 18.0002 14.5977 17.7642 14.1293 17.5834C12.99 17.1804 12.2884 17.4551 11.678 18.4984C11.425 18.9325 11.2259 19.3978 10.9956 19.8451C10.9302 19.9614 10.8589 20.0742 10.7822 20.1833L10.6718 20.1737C10.1778 18.1146 9.64409 16.0639 9.20157 13.9929C8.72188 11.7443 8.33812 9.47651 7.88241 7.22073C7.79639 6.81751 7.65046 6.42945 7.44948 6.06946C7.19045 5.58977 6.77791 5.45785 6.25024 5.60056C5.6269 5.7857 5.05723 6.11804 4.58929 6.56955C3.71864 7.36824 3.22456 8.40678 2.93554 9.53167C2.06489 12.9495 1.94017 16.4225 2.22439 19.9231C2.39828 22.0577 2.74846 24.166 3.1478 26.2683C3.45835 27.8734 3.93792 29.4412 4.5785 30.9453C4.90819 31.7783 5.59524 32.4187 6.44932 32.689C7.02855 32.8833 7.61018 33.0704 8.19661 33.2407C9.03511 33.4743 9.78391 33.9549 10.3457 34.6198C11.1851 35.6068 11.9718 36.6321 12.7801 37.6419C12.4839 38.112 12.5918 38.5365 12.8605 38.991C13.1711 39.5151 13.3797 40.1015 13.6999 40.6184C14.0386 41.1672 14.4199 41.6885 14.8404 42.1774C15.2469 42.6499 15.506 42.6439 16.0696 42.3429C17.2881 41.6893 18.5149 41.0525 19.7321 40.3989C20.7443 39.8545 21.7708 39.8425 22.8501 40.1867C24.2329 40.6268 25.642 40.9782 27.0343 41.3859C27.3107 41.4763 27.6142 41.4143 27.833 41.2228C29.8147 39.7336 31.6086 38.0097 33.1756 36.0889C33.7608 35.3609 34.1254 34.555 34.1626 33.5861C34.1842 33.0488 34.1758 32.5223 34.1554 31.9863C34.1074 30.7606 33.8556 29.5734 33.6205 28.3789C33.5738 28.0075 33.274 27.7191 32.901 27.687C32.4969 27.608 32.0779 27.686 31.7293 27.9053C31.6502 27.7853 31.5626 27.6654 31.4955 27.5455C31.0158 26.6556 30.8539 25.6867 30.7879 24.6913C30.6908 23.2198 30.9894 21.7939 31.276 20.3656C31.5758 18.8678 31.89 17.3747 31.9176 15.8361C31.9284 15.2365 31.7317 14.7748 31.2556 14.445C30.2039 13.717 28.832 13.4268 27.8474 14.9247C27.7047 15.1417 27.5512 15.3528 27.3797 15.6022C27.3617 15.5478 27.348 15.4921 27.3389 15.4355C27.3573 12.216 27.3745 8.99641 27.3905 5.77685C27.4078 5.16642 27.3853 4.55552 27.3233 3.948C27.171 2.75836 26.3639 2.03761 25.1767 2.15634C23.5433 2.31943 22.157 2.96223 21.459 4.5908C21.312 4.91856 21.1862 5.25544 21.0825 5.59936C20.6755 7.01446 20.2758 8.43237 19.8832 9.85307C19.2176 12.2683 18.8938 14.7436 18.5641 17.2188C18.1875 20.0082 18.1083 22.8085 18.1599 25.6135C18.1791 26.6928 18.5113 27.6726 19.2668 28.4617C19.912 29.1345 20.586 29.7809 21.2803 30.4093C21.9279 31.0113 22.5635 31.6133 23.012 32.3916Z" fill="#FDB610"/>
<path d="M12.7801 37.6455C11.9718 36.6357 11.1815 35.6068 10.3457 34.6234C9.78391 33.9585 9.03511 33.4779 8.19661 33.2443C7.61018 33.074 7.02855 32.8845 6.44932 32.6926C5.596 32.423 4.90908 31.7841 4.5785 30.9525C3.93792 29.4484 3.45835 27.8806 3.14781 26.2755C2.74846 24.1732 2.39828 22.0649 2.22439 19.9303C1.94017 16.4297 2.06489 12.9567 2.93554 9.53887C3.22456 8.40798 3.71864 7.38023 4.60129 6.56955C5.06923 6.11804 5.6389 5.7857 6.26224 5.60056C6.7863 5.45785 7.19884 5.60056 7.46148 6.06946C7.66246 6.42945 7.80838 6.81751 7.8944 7.22073C8.34532 9.47651 8.73387 11.7443 9.21357 13.9928C9.65609 16.0639 10.1898 18.1146 10.6838 20.1737L10.7942 20.1833C10.8709 20.0742 10.9422 19.9614 11.0076 19.8451C11.2379 19.3978 11.437 18.9325 11.69 18.4984C12.3004 17.4551 13.002 17.1792 14.1413 17.5834C14.6097 17.7642 15.0549 18.0002 15.4676 18.2861C15.9269 18.5859 15.9797 19.1004 15.9605 19.5909C15.8897 21.3154 15.7794 23.0387 15.7207 24.7632C15.6914 25.4805 15.7115 26.1989 15.7806 26.9135C15.8574 27.675 16.2687 28.2902 16.8252 28.8083C17.3816 29.3264 17.9237 29.8432 18.4729 30.3613C18.8183 30.8626 19.208 31.3459 19.3016 31.9719C19.4759 33.0029 19.3779 34.0616 19.0174 35.0431C18.9742 35.1631 18.8375 35.2374 18.7439 35.3334C18.6 34.8716 18.4357 34.4159 18.3158 33.9482C18.0028 32.7346 17.3144 31.7896 16.3467 31.0101C15.7912 30.5575 15.2588 30.0772 14.7517 29.571C14.152 28.9714 13.7395 28.2602 13.6795 27.3992C13.6412 26.8475 13.6795 26.2887 13.6879 25.7334C13.7203 24.3903 13.7611 23.0471 13.7983 21.704C13.8151 21.2387 13.8534 20.7722 13.8426 20.3057C13.8342 19.9387 13.6028 19.8439 13.3042 20.0586C13.2298 20.1098 13.1652 20.174 13.1135 20.2481C12.1685 21.7136 11.1563 23.1575 11.3998 25.0451C11.4076 25.1524 11.4076 25.2603 11.3998 25.3677C11.1324 25.5775 11.0496 25.3077 10.9597 25.171C10.7426 24.8424 10.5795 24.4778 10.36 24.154C9.9266 23.4955 9.59168 22.7771 9.36587 22.0218C8.94974 20.747 8.49882 19.483 8.0635 18.2142C7.94357 17.7273 7.79846 17.244 7.69533 16.7523C7.14288 14.1468 6.60202 11.5424 6.07276 8.93925C6.02359 8.6994 6.02599 8.43796 5.70339 8.26767C5.5712 8.40443 5.45382 8.55477 5.35321 8.71619C5.24067 8.96057 5.14803 9.21363 5.07619 9.47291C4.4238 11.6447 4.19714 13.8753 4.15397 16.1263C4.08586 19.3473 4.44885 22.563 5.23329 25.6879C5.48872 26.712 5.8437 27.711 6.1543 28.7207C6.40734 29.6861 6.92662 30.4476 7.83324 30.8974C8.15383 31.0629 8.48755 31.2017 8.83101 31.3123C10.4068 31.792 11.6001 32.7922 12.5894 34.0634C13.008 34.6006 13.3965 35.1607 13.8007 35.7099C14.5394 36.7149 15.5216 37.1586 16.7532 36.9092C17.1274 36.8336 17.4667 36.5926 17.8325 36.4462C17.9728 36.3899 18.1083 36.1572 18.2894 36.3899C18.2151 37.1562 17.8265 37.7786 17.348 38.3446C16.2951 39.5871 15.2529 39.707 13.977 38.7236C13.5524 38.3974 13.1771 38.0065 12.7801 37.6455ZM23.012 32.3916C22.5635 31.6181 21.9327 31.0161 21.2743 30.4225C20.5836 29.7893 19.906 29.1429 19.2644 28.4701C18.5089 27.681 18.1767 26.706 18.1575 25.6219C18.1059 22.8145 18.1851 20.0142 18.5617 17.2272C18.8962 14.752 19.22 12.2767 19.8808 9.86146C20.2718 8.44156 20.6715 7.02366 21.0801 5.60775C21.1838 5.26384 21.3096 4.92695 21.4566 4.59919C22.1594 2.97062 23.5457 2.32783 25.1743 2.16473C26.3591 2.04481 27.1686 2.76435 27.3209 3.9564C27.3829 4.56391 27.4054 5.17482 27.3881 5.78524C27.3761 9.00401 27.3589 12.2236 27.3365 15.4439C27.3456 15.5005 27.3593 15.5562 27.3773 15.6106C27.5488 15.3612 27.7023 15.1501 27.845 14.9331C28.8296 13.4304 30.2015 13.7206 31.2532 14.4534C31.7329 14.7831 31.926 15.2461 31.9152 15.8445C31.8876 17.3831 31.5734 18.8762 31.2736 20.374C30.987 21.8023 30.6884 23.2282 30.7855 24.6997C30.8515 25.695 31.0122 26.664 31.4931 27.5539C31.5602 27.6738 31.6478 27.7937 31.7269 27.9136C31.7587 28.0151 31.7988 28.1138 31.8469 28.2087C32.1915 28.7558 32.3901 29.3821 32.4237 30.0279C32.4992 31.3591 31.944 32.4636 31.2448 33.5249C31.1909 33.6076 31.0446 33.6304 30.9402 33.682C30.9246 33.3414 30.9114 33.0008 30.8911 32.6614C30.7927 31.0185 30.5313 29.4175 29.7146 27.9532C29.5306 27.6027 29.3649 27.2428 29.2181 26.8751C28.8871 26.1076 28.6725 25.3065 28.754 24.4682C28.8847 23.1311 29.043 21.7951 29.2205 20.464C29.3188 19.7192 29.4795 18.9841 29.6127 18.2442C29.6303 18.2323 29.6388 18.2109 29.6343 18.1902L29.6894 18.0247C29.7758 17.587 29.8801 17.1529 29.9293 16.7115C29.9264 16.5605 29.8486 16.4207 29.7218 16.3386C29.6019 16.287 29.41 16.3386 29.2781 16.4033C29.1775 16.4778 29.0977 16.5769 29.0466 16.6911C28.6869 17.2908 28.3151 17.8808 27.9673 18.49C27.823 18.7167 27.7252 18.9699 27.6795 19.2347C27.5788 20.1594 27.5212 21.0888 27.4468 22.0158L27.3353 22.565L27.2154 22.5926C27.0998 22.4419 26.9974 22.2814 26.9096 22.1129C26.7081 21.6332 26.4802 21.1595 26.3531 20.6606C26.1205 19.7432 25.9526 18.809 25.7535 17.882C25.6516 16.7547 25.5233 15.6298 25.4537 14.5013C25.2642 11.4708 25.1647 8.43796 25.3638 5.40148C25.3886 5.20503 25.3942 5.00661 25.3805 4.80906C25.3338 4.43729 25.0783 4.2754 24.7258 4.39772C24.5771 4.45824 24.4405 4.54519 24.3228 4.65436C23.8192 5.09413 23.4458 5.66365 23.2435 6.30092C22.681 7.97985 22.0443 9.6516 21.6365 11.3713C20.8162 14.782 20.4037 18.2598 20.243 21.7651C20.1878 22.9644 20.1998 24.172 20.4601 25.3629L20.52 25.5008C20.5116 26.1365 20.7403 26.7527 21.1616 27.2289C21.748 27.8812 22.3748 28.4961 23.0384 29.0697C23.7349 29.6571 24.3244 30.3607 24.7809 31.1492C25.2258 31.9287 25.6828 32.6998 26.1325 33.4745C26.4425 34.0596 27.0151 34.4599 27.6711 34.5502C28.5202 34.663 29.3812 34.6786 30.2375 34.7361C30.2375 35.1643 29.9808 35.4497 29.657 35.6464C29.136 35.9601 28.5988 36.2464 28.0477 36.5038C27.1446 36.9283 26.3507 36.7305 25.6348 36.0517C25.0036 35.4373 24.4586 34.7402 24.0146 33.9794C23.6908 33.4385 23.3418 32.9157 23.012 32.3916Z" fill="#4F403F"/>
<path d="M30.9426 33.6736C31.047 33.622 31.1933 33.5992 31.2472 33.5165C31.944 32.4552 32.5016 31.3507 32.4261 30.0195C32.3925 29.3737 32.1939 28.7474 31.8492 28.2003C31.8012 28.1054 31.7611 28.0067 31.7293 27.9052C32.0779 27.686 32.4969 27.608 32.901 27.687C33.274 27.7191 33.5738 28.0075 33.6205 28.3789C33.8604 29.5782 34.1074 30.7606 34.1554 31.9863C34.1758 32.5223 34.1842 33.0488 34.1626 33.5861C34.1254 34.555 33.7608 35.3609 33.1756 36.0889C31.6101 38.0094 29.8178 39.7333 27.8378 41.2228C27.6182 41.4156 27.3129 41.4777 27.0355 41.3859C25.6432 40.977 24.2341 40.6256 22.8513 40.1867C21.7648 39.8425 20.7431 39.8545 19.7333 40.3989C18.5161 41.0525 17.2893 41.6893 16.0708 42.3429C15.5072 42.6439 15.2482 42.6499 14.8416 42.1774C14.4211 41.6885 14.0398 41.1672 13.7011 40.6184C13.3821 40.1015 13.1735 39.5151 12.8617 38.991C12.593 38.5365 12.4851 38.112 12.7813 37.6419C13.1783 38.0017 13.5536 38.3938 13.9806 38.7212C15.2529 39.707 16.2951 39.5871 17.3456 38.3482C17.8253 37.7822 18.2127 37.1598 18.287 36.3935L18.7367 35.3262C18.8303 35.2302 18.967 35.1511 19.0102 35.0359C19.3707 34.0544 19.4687 32.9957 19.2944 31.9647C19.2009 31.3387 18.8147 30.8554 18.4657 30.3541C18.7547 30.2618 19.0461 30.1778 19.3316 30.0759C19.6434 29.9631 19.8592 30.0219 20.0595 30.3157C20.4684 30.9237 20.9158 31.5066 21.3523 32.0966C21.886 32.8161 22.0095 32.8509 22.8238 32.4792C22.8885 32.4492 22.9521 32.4156 23.0168 32.3844C23.3514 32.9133 23.6956 33.4361 24.0194 33.971C24.4633 34.7318 25.0084 35.4289 25.6396 36.0433C26.3591 36.7221 27.1494 36.9199 28.0525 36.4954C28.6036 36.238 29.1408 35.9517 29.6618 35.638C29.9856 35.4413 30.2447 35.1583 30.2423 34.7277L30.9426 33.6736Z" fill="#E37C11"/>
<path d="M18.7319 35.3262L18.2822 36.3935C18.1011 36.1608 17.9656 36.3935 17.8253 36.4498C17.4655 36.5962 17.1226 36.8372 16.746 36.9128C15.5144 37.1622 14.5322 36.7185 13.7935 35.7135C13.3893 35.1643 13.0008 34.6042 12.5822 34.067C11.5953 32.7958 10.402 31.798 8.83101 31.3123C8.49072 31.2001 8.16021 31.0601 7.84283 30.8938C6.93021 30.444 6.41094 29.6825 6.16389 28.7171C6.26223 28.7939 6.36417 28.8646 6.45771 28.9474C7.06333 29.4763 7.60059 29.3335 7.82245 28.5468C7.97291 27.9942 8.02247 27.419 7.96875 26.8487C7.87281 25.6879 7.84043 24.5222 7.82364 23.3577C7.81285 22.6238 7.87281 21.8887 7.90759 21.1547C7.95436 20.1713 8.00833 19.188 8.0599 18.2034C8.49522 19.4722 8.94613 20.7362 9.36227 22.011C9.58808 22.7663 9.923 23.4847 10.3564 24.1432C10.5795 24.467 10.7426 24.8316 10.9561 25.1602C11.046 25.2969 11.1288 25.5667 11.3962 25.3569C11.4609 25.4192 11.5245 25.4768 11.5905 25.5427C12.0366 25.9553 12.3736 25.8833 12.6098 25.3101C12.7177 25.0451 12.7837 24.7632 12.8725 24.491C13.1787 23.5572 13.4857 22.6234 13.7935 21.6896C13.7563 23.0327 13.7155 24.3759 13.6831 25.719C13.6699 26.2743 13.6364 26.8331 13.6747 27.3848C13.7347 28.2458 14.1448 28.9618 14.7469 29.5566C15.254 30.0628 15.7864 30.5431 16.3419 30.9957C17.3096 31.774 17.998 32.7202 18.311 33.9338C18.4249 34.4087 18.588 34.8644 18.7319 35.3262Z" fill="#D8A87C"/>
<path d="M8.0491 18.207C7.99753 19.1916 7.94357 20.1749 7.8968 21.1583C7.86202 21.8923 7.80206 22.6274 7.81285 23.3613C7.82964 24.5258 7.86202 25.6914 7.95796 26.8523C8.01212 27.4237 7.96255 28.0002 7.81165 28.554C7.58979 29.3407 7.05253 29.4835 6.44691 28.9546C6.35337 28.8718 6.25144 28.8011 6.1531 28.7243C5.8425 27.7146 5.48752 26.712 5.23328 25.6879C4.44885 22.563 4.08586 19.3473 4.15396 16.1263C4.20193 13.8753 4.42859 11.6423 5.07978 9.47291C5.15045 9.21374 5.24189 8.96068 5.35321 8.71619C5.45231 8.555 5.56807 8.40467 5.69859 8.26767C6.02118 8.43796 6.01878 8.7018 6.06795 8.93925C6.60441 11.5424 7.14207 14.1444 7.68093 16.7451C7.78407 17.2368 7.92558 17.7201 8.0491 18.207Z" fill="#FCE3C2"/>
<path d="M13.7863 21.6932C13.4793 22.6278 13.1723 23.5616 12.8653 24.4946C12.7765 24.7668 12.7106 25.0487 12.6026 25.3137C12.3628 25.8869 12.0294 25.9589 11.5833 25.5463C11.5173 25.4864 11.4538 25.4264 11.389 25.3605C11.3968 25.2531 11.3968 25.1453 11.389 25.0379C11.1491 23.1467 12.1577 21.7028 13.1027 20.2409C13.1544 20.1668 13.219 20.1026 13.2934 20.0514C13.5884 19.8368 13.8235 19.9315 13.8318 20.2985C13.8414 20.759 13.8031 21.2279 13.7863 21.6932Z" fill="#FBE2C1"/>
<path d="M20.4493 25.3593C20.189 24.1732 20.177 22.9692 20.2322 21.7615C20.3929 18.2562 20.8054 14.7784 21.6257 11.3677C22.0395 9.648 22.6703 7.97865 23.2327 6.29732C23.4351 5.66006 23.8084 5.09053 24.312 4.65076C24.4297 4.54159 24.5663 4.45465 24.715 4.39412C25.0675 4.2742 25.323 4.4337 25.3697 4.80546C25.3889 5.00207 25.3889 5.20008 25.3697 5.39669C25.1707 8.43317 25.2702 11.466 25.4597 14.4965C25.5292 15.625 25.6576 16.7499 25.7595 17.8772C25.7331 18.0715 25.7115 18.2669 25.6804 18.4612C25.3913 20.2733 24.8661 22.0218 24.2413 23.7379C24.1597 23.9633 24.0314 24.2416 23.8431 24.3375C23.6548 24.4334 23.3814 24.3207 23.0912 24.2955C23.036 24.6097 22.9785 24.9575 22.9137 25.3041C22.7194 26.351 21.8764 26.6496 21.0657 25.9613L20.4996 25.4816L20.4493 25.3593Z" fill="#FCE3C2"/>
<path d="M20.5068 25.4948L21.0729 25.9745C21.8835 26.6628 22.7266 26.3642 22.9209 25.3173C22.9857 24.9707 23.0408 24.6229 23.0984 24.3087C23.3886 24.3339 23.674 24.4442 23.8503 24.3507C24.0266 24.2572 24.1669 23.9729 24.2485 23.7511C24.8721 22.0302 25.3973 20.2817 25.6875 18.4744C25.7187 18.2801 25.7403 18.0847 25.7667 17.8904C25.9622 18.8174 26.1265 19.7516 26.3663 20.669C26.4934 21.1679 26.7261 21.644 26.9228 22.1213C27.0106 22.2898 27.1129 22.4503 27.2286 22.601L27.3485 22.5734L27.46 22.0242C27.5176 21.9354 27.5799 21.8503 27.6303 21.7567C28.0776 20.9065 28.5106 20.0502 28.9723 19.2084C29.1557 18.8738 29.4016 18.5716 29.6187 18.255C29.4855 18.9949 29.3248 19.73 29.2265 20.4747C29.049 21.8059 28.8907 23.1419 28.76 24.479C28.6784 25.3185 28.8931 26.1184 29.2241 26.8859C29.3714 27.252 29.5375 27.6102 29.7218 27.9592C30.5433 29.4235 30.8011 31.0245 30.8982 32.6674C30.9186 33.0068 30.9318 33.3474 30.9474 33.688L30.2423 34.7445C29.386 34.687 28.5249 34.6714 27.6759 34.5586C27.0161 34.4669 26.4415 34.0616 26.1337 33.4709C25.6839 32.6962 25.227 31.9251 24.7821 31.1456C24.3219 30.3538 23.7274 29.6481 23.0252 29.0601C22.3616 28.4865 21.7348 27.8716 21.1484 27.2193C20.7279 26.744 20.4993 26.1293 20.5068 25.4948Z" fill="#D8A87C"/>
<path d="M29.6139 18.2406C29.3968 18.5572 29.151 18.8594 28.9675 19.194C28.5058 20.0334 28.0728 20.8921 27.6255 21.7423C27.5764 21.8359 27.5128 21.921 27.4552 22.0098C27.5296 21.0828 27.5871 20.1534 27.6879 19.2287C27.7336 18.9639 27.8314 18.7107 27.9757 18.484C28.3211 17.8772 28.6952 17.2848 29.055 16.6851C29.1061 16.5709 29.1859 16.4718 29.2865 16.3973C29.4184 16.3338 29.6127 16.2774 29.7302 16.3326C29.857 16.4147 29.9348 16.5545 29.9377 16.7055C29.8837 17.1469 29.7794 17.581 29.6978 18.0187L29.6426 18.1842C29.6471 18.2074 29.6352 18.2306 29.6139 18.2406Z" fill="#F9E0C0"/>
<path d="M29.6453 18.1866L29.7171 18.0211L29.6453 18.1866ZM20.4583 25.3593L20.5365 25.5155L20.4583 25.3593Z" fill="#D8A87C"/>
</svg>
