<svg width="24" height="24" viewBox="0 0 24 24" fill="none" xmlns="http://www.w3.org/2000/svg">
<path d="M18 0H6C2.68629 0 0 2.68629 0 6V18C0 21.3137 2.68629 24 6 24H18C21.3137 24 24 21.3137 24 18V6C24 2.68629 21.3137 0 18 0Z" fill="#3A3F50"/>
<path d="M16.7655 13.7085C16.7655 13.9065 16.752 14.1 16.731 14.2935C16.467 17.232 14.481 19.188 11.727 19.188C9.0555 19.188 7.2015 17.34 6.732 14.529C6.68697 14.2578 6.6639 13.9834 6.663 13.7085L6.681 13.365C6.7455 12.2085 7.266 10.9995 8.0445 10.2345L8.589 9.6975L8.625 10.461C8.643 10.815 8.817 11.148 9.1305 11.424C9.291 11.565 9.678 11.7165 10.1445 11.7165C10.386 11.7165 10.6155 11.6745 10.8075 11.5965C10.9747 11.5375 11.1206 11.4302 11.2266 11.2881C11.3327 11.146 11.3941 10.9756 11.403 10.7985C11.4375 10.311 11.2425 10.0695 10.995 9.7635C10.719 9.4245 10.3755 9.003 10.194 8.0685C9.969 6.9015 10.6245 5.7975 12.039 4.959L12.762 4.5315L12.543 5.3415C12.5155 5.44595 12.4994 5.55308 12.495 5.661C12.465 6.5115 13.161 7.5705 14.6205 8.8965C16.4835 10.5915 16.749 12.1065 16.755 13.3665L16.7655 13.7085V13.7085Z" fill="#C23A3A"/>
</svg>
