<svg width="39" height="38" viewBox="0 0 39 38" fill="none" xmlns="http://www.w3.org/2000/svg">
<path d="M17.1286 0.481251H19.1137C19.1211 0.497171 19.1272 0.526561 19.1382 0.529011C20.8527 0.880474 22.3516 1.73893 23.8419 2.59371C26.7957 4.28489 29.5327 6.29571 32.1877 8.41796C34.038 9.87184 35.7289 11.518 37.2319 13.3287C38.2201 14.5373 38.6267 15.9003 38.3083 17.4397C38.1607 18.138 37.9484 18.821 37.6739 19.4799C37.1437 20.7584 36.3465 21.885 35.5394 23.0019C32.233 27.5868 28.2481 31.5423 23.9816 35.2235C23.536 35.6071 23.055 35.9474 22.5451 36.2399C20.2844 37.5441 17.965 37.6935 15.6138 36.4848C15.0275 36.1809 14.4573 35.847 13.9054 35.4843C11.1574 33.689 8.6984 31.5399 6.32387 29.2866C4.63994 27.6973 3.11879 25.9439 1.78301 24.0526C1.25934 23.3426 0.868893 22.5434 0.630653 21.694C0.591912 21.5996 0.541736 21.5104 0.481251 21.4282V19.2239C0.544931 19.0807 0.619632 18.9423 0.671066 18.7965C0.893945 18.1573 1.05314 17.4887 1.34093 16.88C3.9567 11.3472 7.68442 6.67901 12.4102 2.80801C13.7732 1.68994 15.2991 0.862105 17.0674 0.562075C17.0919 0.558401 17.1078 0.509417 17.1286 0.481251ZM36.6808 16.5384C36.6939 16.0192 36.5152 15.5134 36.1787 15.1178C35.8113 14.6635 35.4329 14.1969 34.9822 13.832C33.7405 12.8278 32.4706 11.8579 31.1859 10.9027C29.3821 9.55562 27.3896 8.6041 25.1755 8.15099C24.1456 7.94036 23.1109 7.76891 22.065 7.99424C21.2948 8.16079 20.5257 8.34693 19.7738 8.58206C18.0218 9.14269 16.1859 9.39543 14.3475 9.32907C13.1731 9.28253 11.9951 9.32907 10.8206 9.28376C9.93203 9.24549 9.05781 9.51784 8.34816 10.054C6.79168 11.1917 5.62952 12.6698 4.70126 14.3402C4.47226 14.7541 4.34245 15.217 3.88445 15.4754C3.74239 15.555 3.65422 15.7595 3.58074 15.9236C3.42277 16.2751 3.23908 16.6265 3.15703 16.9976C3.00466 17.7164 2.67505 18.3857 2.19816 18.9447C1.78301 19.4346 1.52584 20.0322 1.70831 20.6824C1.82807 21.105 2.02623 21.5014 2.29245 21.8507C2.94639 22.6896 3.64932 23.4917 4.35102 24.2926C4.60662 24.5807 4.88735 24.8454 5.18988 25.0837C5.8759 25.6676 6.81941 25.8455 7.67095 25.5515C8.51103 25.2931 9.37316 25.1094 10.2218 24.8792C13.1163 24.0923 16.0964 23.6638 19.0954 23.6031C20.0126 23.5848 20.9323 23.537 21.8458 23.4807C24.1935 23.3539 26.548 23.463 28.8739 23.8064C29.436 23.8848 30.0017 24.0183 30.5614 23.9999C31.3353 23.9742 32.0003 23.5836 32.593 23.0998C33.8016 22.1064 34.8363 20.9186 35.6546 19.5852C36.1946 18.7145 36.6526 17.7838 36.6808 16.5384ZM13.1425 29.9148C13.4315 29.8768 13.6324 29.8854 13.7989 29.8242C14.3157 29.6368 14.8153 29.4017 15.3346 29.2229C16.0926 28.9608 16.8506 28.5775 17.6295 28.5151C19.6635 28.3447 21.7111 28.5782 23.6546 29.2021C24.1518 29.3613 24.6649 29.4715 25.1682 29.6037C25.2821 29.1702 25.2907 29.1653 25.1339 28.9241C24.8905 28.5142 24.6252 28.1176 24.3391 27.7362C23.9718 27.2807 23.5725 26.8447 23.0006 26.6218C21.7769 26.1286 20.5107 25.7482 19.2178 25.4854C18.3606 25.32 17.6895 25.5442 17.0135 26.0132C15.626 26.9684 14.4835 28.1771 13.3825 29.4323C13.2956 29.5339 13.2576 29.6797 13.1425 29.9148Z" fill="#FDB610"/>
<path d="M36.6808 16.5384C36.6526 17.7838 36.1909 18.7145 35.6521 19.5852C34.8338 20.9186 33.7991 22.1064 32.5906 23.0998C31.9979 23.5897 31.3329 23.9742 30.5589 23.9999C29.9993 24.0183 29.4335 23.8848 28.8714 23.8064C26.5455 23.463 24.1911 23.3539 21.8434 23.4807C20.9274 23.537 20.0065 23.5848 19.0929 23.6031C16.0989 23.6649 13.1238 24.0935 10.2341 24.8792C9.3854 25.1094 8.5196 25.2931 7.68319 25.5515C6.83165 25.8455 5.88814 25.6676 5.20213 25.0837C4.89959 24.8454 4.61887 24.5807 4.36327 24.2926C3.66524 23.4917 2.95742 22.6896 2.30347 21.8507C2.03779 21.5028 1.83966 21.1082 1.71933 20.6873C1.53197 20.0371 1.78914 19.4395 2.20918 18.9496C2.68607 18.3906 3.01568 17.7213 3.16805 17.0025C3.2501 16.6351 3.43379 16.28 3.59176 15.9285C3.66524 15.7644 3.75341 15.5611 3.89547 15.4803C4.35347 15.2219 4.48328 14.759 4.71228 14.3451C5.64054 12.6747 6.8027 11.1966 8.35918 10.0589C9.06883 9.52274 9.94305 9.25039 10.8317 9.28866C12.0061 9.33029 13.1841 9.28866 14.3585 9.33397C16.1969 9.40033 18.0328 9.14759 19.7848 8.58695C20.5367 8.35183 21.3058 8.16569 22.0761 7.99914C23.1219 7.77381 24.1579 7.94526 25.1866 8.15589C27.4031 8.609 29.3931 9.56052 31.197 10.9076C32.4755 11.8628 33.7454 12.8327 34.9933 13.8369C35.4439 14.2042 35.8211 14.6684 36.1897 15.1227C36.5211 15.5186 36.6958 16.0223 36.6808 16.5384ZM28.9388 12.3747L27.604 11.722L25.1915 10.7202C24.3185 10.3768 23.3659 10.2885 22.4447 10.4655L19.9954 11.0778C19.8145 11.0889 19.6342 11.1094 19.4554 11.139C17.1629 11.6387 14.8582 11.9963 12.4984 11.8383C11.9902 11.804 11.477 11.8518 10.9652 11.8616C10.4129 11.8689 9.87892 11.9461 9.40867 12.2694C9.22781 12.3505 9.05305 12.4447 8.88576 12.551C8.07991 13.1602 7.43262 13.9545 6.99863 14.8668C6.90331 15.1015 6.82714 15.3435 6.77086 15.5905C6.63248 16.3375 6.83331 17.038 7.1211 17.7042C7.29741 18.087 7.53252 18.4399 7.8179 18.75C8.13752 19.1174 8.34326 19.0709 8.58206 18.6606C8.79391 18.2932 8.9825 17.9185 9.17354 17.5413C9.6291 16.6425 10.0577 15.7289 10.539 14.8472C10.8684 14.2349 11.2431 14.2263 11.684 14.7676C12.0085 15.1656 12.2963 15.5942 12.6172 15.9922C13.0972 16.5898 13.3813 16.5861 13.8993 16.0228C14.4173 15.4595 14.9672 14.8606 15.5195 14.2985C15.9163 13.8932 16.1575 13.8663 16.6412 14.1761C16.9149 14.358 17.1726 14.5628 17.4115 14.7884C17.725 15.07 18.0128 15.3811 18.3287 15.6603C18.8186 16.0902 19.0304 16.0608 19.3856 15.5379C19.5901 15.2329 19.7701 14.9121 19.9746 14.6084C20.1561 14.3122 20.3609 14.0309 20.5869 13.7671C20.9408 13.3899 21.2605 13.3752 21.6364 13.7291C21.9918 14.0713 22.329 14.4318 22.6467 14.8092C23.2835 15.544 23.9044 16.2922 24.5461 17.0221C24.7168 17.213 24.9144 17.378 25.1327 17.5119C25.5331 17.7568 25.7756 17.6834 25.9581 17.2499C26.0993 16.9314 26.2065 16.5989 26.2777 16.2579C26.4773 15.1962 26.6451 14.1283 26.8312 13.0629C26.879 12.7886 26.8778 12.4861 27.141 12.2596C27.2794 12.3906 27.3945 12.5045 27.5084 12.6098L27.8366 13.3727C27.8734 13.6177 27.9101 13.8626 27.9468 14.1075C28.0006 14.097 28.0531 14.081 28.1036 14.0597C28.4159 13.8344 28.7257 13.6066 29.0367 13.3813C29.5633 12.9992 29.5633 12.9992 30.1107 13.1744C29.9013 12.8498 29.6601 12.6882 28.9388 12.371V12.3747ZM6.43041 19.1162L6.34224 18.9729C5.97483 18.3567 5.49308 17.8163 4.92292 17.3809C4.42348 17.9851 4.19374 18.7677 4.28734 19.546C4.37919 20.5049 4.8127 21.3719 5.4495 22.1054C5.93935 22.6639 6.53328 23.0276 7.31458 22.9725C8.1314 23.0141 8.88821 22.7533 9.64135 22.5034C9.83483 22.4508 10.0283 22.4006 10.2218 22.3455C14.0463 21.2617 17.9234 20.5661 21.9205 20.7535C22.4508 20.778 22.9823 20.7657 23.5125 20.7706C25.1951 20.8384 26.8778 20.9057 28.5604 20.9727C28.6146 20.9681 28.668 20.957 28.7196 20.9396H29.1163C29.7531 20.898 30.3912 20.8686 31.0255 20.8172C31.6856 20.7596 32.1938 20.4094 32.6175 19.9207C33.2057 19.2141 33.6699 18.4129 33.9903 17.5511C34.0492 17.3453 34.0922 17.1353 34.1189 16.9229C33.7442 17.0858 33.4747 17.1605 33.2543 17.3074C32.8718 17.5584 32.5094 17.8389 32.1705 18.1463C31.5643 18.7059 31.3684 18.6765 31.0451 17.9014C30.9104 17.5793 30.8002 17.245 30.6581 16.9302C30.5195 16.6108 30.3514 16.3049 30.156 16.0167C29.7752 15.4901 29.3453 15.4203 28.8347 15.8207C28.2799 16.2518 27.7901 16.7686 27.6003 17.5034C27.3762 18.3207 26.9957 19.0867 26.4798 19.7591C26.192 20.1461 26.0205 20.1902 25.5882 19.9709C25.3208 19.8495 25.0715 19.6917 24.8473 19.5019C24.0991 18.799 23.3778 18.0716 22.643 17.354C22.3687 17.0845 22.1177 16.7833 21.8115 16.558C21.3988 16.2542 21.1417 16.3008 20.8037 16.6804C20.5477 16.9682 20.331 17.2927 20.0775 17.5793C19.5876 18.1414 19.2092 18.1916 18.5896 17.7764C18.2712 17.5621 17.9773 17.3013 17.6748 17.0698C17.5144 16.9474 17.3405 16.8506 17.1727 16.7429L16.891 16.5886C16.3792 16.2604 16.1477 16.2726 15.7448 16.6829C15.2305 17.2058 14.7345 17.7471 14.2165 18.2651C13.734 18.7476 13.5099 18.7549 12.9784 18.3728C12.8155 18.2504 12.6637 18.1206 12.5033 17.9981C11.733 17.4103 11.3901 17.4605 10.8317 18.243C10.7459 18.3655 10.6614 18.4879 10.5867 18.6104C10.1189 19.355 9.65604 20.1032 9.18579 20.8478C8.91025 21.2862 8.65186 21.3805 8.23549 21.0866C7.87253 20.8108 7.54037 20.4967 7.24478 20.1497C6.9521 19.8277 6.70105 19.4676 6.43164 19.1247L6.43041 19.1162ZM30.3814 13.4144C30.6055 13.6593 30.8137 13.8834 31.0169 14.1112C31.3219 14.4516 31.6023 14.8153 31.9305 15.1301C32.2587 15.4448 32.4926 15.4485 32.9102 15.1668C31.884 14.1749 30.8516 13.4536 30.3814 13.4144Z" fill="#4D4040"/>
<path d="M13.1425 29.9148C13.2576 29.6797 13.2956 29.5339 13.3874 29.4323C14.4896 28.1771 15.6309 26.9684 17.0184 26.0132C17.6981 25.5442 18.3655 25.3201 19.2227 25.4854C20.514 25.7485 21.7785 26.1289 23.0006 26.6218C23.5725 26.8447 23.9718 27.2807 24.3391 27.7362C24.6252 28.1176 24.8905 28.5142 25.1339 28.9241C25.2894 29.169 25.2821 29.169 25.1682 29.6037C24.6649 29.4715 24.1518 29.3588 23.6546 29.2021C21.7111 28.5782 19.6635 28.3447 17.6295 28.5151C16.8506 28.5775 16.0926 28.9608 15.3346 29.2229C14.8153 29.4017 14.3157 29.6368 13.7989 29.8242C13.6275 29.8854 13.4315 29.8719 13.1425 29.9148Z" fill="#E37C11"/>
<path d="M23.5186 20.7608C22.9884 20.7608 22.4569 20.7682 21.9267 20.7437C17.9295 20.5612 14.0524 21.2568 10.2279 22.3357C10.0344 22.3908 9.84096 22.441 9.64747 22.4936C9.67686 22.2573 9.7087 22.0222 9.73564 21.7858C9.89239 20.3861 10.4986 19.1982 11.4427 18.1732C11.6546 17.943 11.8603 17.9405 12.0306 18.2087C12.2853 18.6092 12.48 19.0451 12.709 19.4627C12.938 19.8803 13.1511 20.2624 13.3923 20.6494C13.4585 20.7559 13.6005 20.8159 13.7903 20.9592C14.0426 20.3836 14.2581 19.884 14.4822 19.388C14.8582 18.5528 15.2305 17.7177 15.8403 17.0135C16.1257 16.6841 16.4526 16.4882 16.8947 16.5837L17.1727 16.738C17.2829 16.9609 17.3858 17.1899 17.507 17.4078C17.9087 18.1279 18.3116 18.848 18.7255 19.5595C18.8406 19.7566 18.9447 20.0003 19.3072 19.9648C19.3917 19.8215 19.5007 19.6562 19.5889 19.475C19.8718 18.919 20.1277 18.3496 20.4302 17.8046C20.5948 17.5201 20.7943 17.2572 21.0241 17.0221C21.3143 16.7159 21.454 16.7367 21.7393 17.06C21.8208 17.1595 21.8968 17.2634 21.9671 17.3711C22.6862 18.3972 23.212 19.5459 23.5186 20.7608Z" fill="#E3DEDE"/>
<path d="M27.5048 12.6049L27.1374 12.2547C26.8741 12.4812 26.8753 12.7837 26.8275 13.058C26.6414 14.1234 26.4736 15.1913 26.274 16.253C26.2028 16.594 26.0957 16.9265 25.9544 17.245C25.7719 17.6785 25.5295 17.7544 25.129 17.507C24.9107 17.3731 24.7131 17.2081 24.5424 17.0172C23.9007 16.2824 23.2798 15.5391 22.643 14.8043C22.3277 14.4233 21.9925 14.0591 21.6389 13.7132C21.2629 13.3593 20.9433 13.374 20.5894 13.7511C20.3633 14.0149 20.1586 14.2963 19.9771 14.5925C19.7726 14.8962 19.5925 15.217 19.388 15.5219C19.0329 16.0497 18.8161 16.0791 18.3312 15.6444C18.0152 15.3652 17.7275 15.0541 17.414 14.7725C17.175 14.5469 16.9173 14.3421 16.6437 14.1602C16.16 13.8565 15.9187 13.8834 15.5219 14.2826C14.9696 14.8447 14.4357 15.4264 13.9018 16.0069C13.3678 16.5873 13.0996 16.5739 12.6196 15.9763C12.2975 15.577 12.0073 15.1484 11.6864 14.7517C11.2456 14.2104 10.8709 14.2238 10.5414 14.8313C10.0602 15.7179 9.63155 16.6314 9.17599 17.5254C8.98495 17.9026 8.79636 18.2798 8.58451 18.6447C8.33958 19.0549 8.13997 19.0954 7.82035 18.7341C7.53497 18.424 7.29986 18.0711 7.12354 17.6883C6.83576 17.0221 6.6337 16.3216 6.7733 15.5746C6.88597 15.9003 6.98394 16.2334 7.11497 16.5543C7.31091 17.0245 7.52277 17.4911 7.99669 17.7617C8.06282 17.7152 8.12773 17.6944 8.14609 17.6515C8.60532 16.6535 9.0866 15.6652 9.50419 14.65C9.84377 13.8803 9.80943 12.9969 9.41112 12.2559C9.88137 11.9326 10.4153 11.8554 10.9676 11.8481C10.9198 13.2319 11.5971 14.2655 12.5767 15.1399C13.0164 15.533 13.2686 15.5158 13.7389 15.1497C13.842 15.0732 13.9357 14.9848 14.0181 14.8864C14.4626 14.3267 14.8974 13.7597 15.3407 13.2001C15.4803 13.0237 15.6383 12.8633 15.7926 12.6906C16.509 13.2711 17.1605 13.805 17.8181 14.3304C18.3361 14.7443 18.7757 14.7088 19.2031 14.2018C19.5215 13.8234 19.8277 13.434 20.113 13.0311C20.5147 12.4641 20.5747 11.8848 20.102 11.3166C20.0558 11.2404 20.0207 11.1579 19.9979 11.0717L22.4471 10.4594C22.429 10.5461 22.3958 10.629 22.3491 10.7043C21.6879 11.4072 21.7466 12.1738 22.1985 12.9294C22.6281 13.6526 23.0983 14.351 23.6068 15.0211C23.8962 15.3762 24.2411 15.6822 24.6281 15.9273C25.0225 16.1918 25.3176 16.0314 25.4131 15.5599C25.4638 15.3276 25.497 15.0918 25.5123 14.8545C25.5872 13.4632 25.4801 12.068 25.1939 10.7043L27.6064 11.706L27.5048 12.6049Z" fill="#AEA2B5"/>
<path d="M23.5186 20.7608C23.2109 19.5493 22.6851 18.404 21.9671 17.3809C21.8968 17.2732 21.8208 17.1693 21.7393 17.0698C21.4539 16.7465 21.3143 16.7257 21.0241 17.0319C20.7943 17.267 20.5948 17.5299 20.4302 17.8144C20.1277 18.3594 19.8717 18.9288 19.5889 19.4848C19.5007 19.6611 19.3917 19.8264 19.3072 19.9746C18.9398 20.0101 18.8406 19.7664 18.7255 19.5693C18.3116 18.8578 17.9087 18.1377 17.507 17.4176C17.3846 17.1997 17.2829 16.9707 17.1727 16.7478C17.3405 16.8555 17.5144 16.956 17.6748 17.0747C17.9834 17.3062 18.2712 17.5646 18.5896 17.7813C19.2092 18.1989 19.5827 18.1487 20.0775 17.5842C20.331 17.2952 20.5477 16.9719 20.8037 16.6853C21.1417 16.3069 21.3988 16.2604 21.8115 16.5629C22.1177 16.7882 22.3687 17.0894 22.643 17.3589C23.3778 18.0765 24.0991 18.8039 24.8473 19.5068C25.0715 19.6966 25.3208 19.8544 25.5882 19.9758C26.0205 20.1951 26.192 20.151 26.4798 19.764C26.9962 19.0902 27.3768 18.3224 27.6003 17.5034C27.7913 16.7686 28.2738 16.2506 28.8396 15.806C29.3502 15.4056 29.7801 15.4754 30.1609 16.002C30.3563 16.2902 30.5244 16.5961 30.663 16.9155C30.81 17.2303 30.9153 17.5646 31.05 17.8867C31.3733 18.6606 31.5692 18.69 32.1754 18.1316C32.5143 17.8242 32.8767 17.5437 33.2592 17.2927C33.4796 17.1458 33.7491 17.0711 34.1238 16.9082C34.0971 17.1206 34.0541 17.3306 33.9952 17.5364C33.6747 18.3982 33.2106 19.1994 32.6224 19.906C32.1999 20.3959 31.6917 20.7449 31.0304 20.8025C30.3961 20.8588 29.758 20.8882 29.1212 20.9249C29.1886 20.7559 29.2437 20.5808 29.3282 20.4204C29.7092 19.7034 29.8747 18.8915 29.8046 18.0826C29.7458 17.4066 29.5756 16.7661 29.1298 16.2285C27.4741 17.2719 27.4411 19.6868 28.7245 20.9249C28.6729 20.9424 28.6195 20.9535 28.5653 20.958C26.8835 20.8951 25.2013 20.8294 23.5186 20.7608Z" fill="#ADA1B5"/>
<path d="M19.9942 11.0717C20.017 11.1579 20.0521 11.2404 20.0983 11.3166C20.571 11.8897 20.511 12.469 20.1093 13.0311C19.824 13.434 19.5178 13.8234 19.1994 14.2018C18.7721 14.7088 18.3324 14.7443 17.8144 14.3304C17.1568 13.805 16.5053 13.2711 15.7889 12.6906C15.6346 12.8633 15.4766 13.0237 15.337 13.2001C14.8937 13.7597 14.459 14.3267 14.0144 14.8864C13.9321 14.9848 13.8384 15.0732 13.7352 15.1497C13.265 15.517 13.0127 15.533 12.5731 15.1399C11.5934 14.2655 10.9162 13.2319 10.9639 11.8481C11.4758 11.8383 11.9889 11.7905 12.4971 11.8248C14.857 11.984 17.1617 11.6252 19.4542 11.1256C19.6331 11.0984 19.8134 11.0804 19.9942 11.0717Z" fill="#E4DFDE"/>
<path d="M25.1915 10.7166C25.4777 12.0802 25.5847 13.4754 25.5099 14.8668C25.4945 15.104 25.4614 15.3398 25.4107 15.5721C25.3152 16.0387 25.02 16.1991 24.6257 15.9395C24.2387 15.6944 23.8938 15.3884 23.6044 15.0333C23.0959 14.3632 22.6257 13.6649 22.1961 12.9417C21.7442 12.1861 21.6854 11.4195 22.3467 10.7166C22.3934 10.6412 22.4265 10.5584 22.4447 10.4716C23.365 10.2915 24.3175 10.3764 25.1915 10.7166Z" fill="#E4DFDF"/>
<path d="M16.891 16.5886C16.4428 16.493 16.122 16.689 15.8367 17.0184C15.2244 17.7226 14.857 18.5577 14.4786 19.3929C14.2545 19.8828 14.0389 20.3885 13.7867 20.9641C13.5968 20.8208 13.4548 20.7608 13.3887 20.6543C13.1437 20.2673 12.9258 19.8669 12.7053 19.4676C12.4849 19.0684 12.2816 18.6104 12.0269 18.2136C11.8567 17.9454 11.6509 17.9479 11.4391 18.1781C10.4949 19.2031 9.88872 20.391 9.73197 21.7907C9.70503 22.0271 9.67319 22.2622 9.6438 22.4985C8.88454 22.7435 8.12773 23.0092 7.31703 22.9676C7.35132 22.5524 7.46276 22.1238 7.39908 21.7246C7.32806 21.2837 7.0966 20.8674 6.93496 20.4412C6.77331 20.015 6.60064 19.5583 6.43409 19.1174C6.7035 19.4603 6.95455 19.8203 7.24723 20.1424C7.54282 20.4894 7.87498 20.8035 8.23794 21.0792C8.65431 21.3731 8.9127 21.2788 9.18824 20.8404C9.65849 20.0959 10.1214 19.3476 10.5892 18.6031C10.6676 18.4806 10.7521 18.3581 10.8341 18.2357C11.3925 17.4568 11.7354 17.4066 12.5057 17.9907C12.6661 18.1132 12.818 18.2467 12.9809 18.3655C13.5123 18.7512 13.7364 18.7402 14.2189 18.2577C14.737 17.7397 15.2329 17.1984 15.7473 16.6755C16.1563 16.2787 16.3828 16.2604 16.891 16.5886Z" fill="#AEA2B5"/>
<path d="M6.43164 19.1174C6.59492 19.5582 6.76188 19.9995 6.93251 20.4412C7.09415 20.8674 7.32561 21.2837 7.39663 21.7246C7.46031 22.1238 7.34887 22.5524 7.31459 22.9676C6.53328 23.0227 5.93322 22.659 5.4495 22.1005C4.8127 21.3658 4.37919 20.5 4.28734 19.5411C4.19512 18.7644 4.42478 17.9839 4.92292 17.3809C5.49309 17.8163 5.97483 18.3567 6.34224 18.9729L6.43042 19.1113L6.43164 19.1174Z" fill="#E3DEDD"/>
<path d="M9.40744 12.2632C9.80576 13.0043 9.8401 13.8876 9.50051 14.6574C9.08292 15.6726 8.60165 16.6608 8.14242 17.6589C8.12405 17.7017 8.05915 17.7226 7.99302 17.7691C7.51909 17.4985 7.30724 17.0343 7.1113 16.5616C6.98026 16.2432 6.88229 15.9101 6.76963 15.5819C6.82591 15.3349 6.90209 15.0929 6.99741 14.8582C7.43172 13.9468 8.07899 13.1534 8.88454 12.5449C9.05183 12.4385 9.22658 12.3444 9.40744 12.2632Z" fill="#E3DEDE"/>
<path d="M28.7257 20.9323C27.4423 19.6942 27.4754 17.2792 29.131 16.2359C29.5768 16.7735 29.7433 17.414 29.8058 18.0899C29.8759 18.8988 29.7104 19.7107 29.3294 20.4277C29.2462 20.5881 29.1898 20.7633 29.1225 20.9323H28.7257Z" fill="#E4DFDE"/>
<path d="M27.5048 12.6049L27.6039 11.7146L28.9388 12.3673C28.6608 13.1609 28.4489 13.347 27.8366 13.3678C27.724 13.1156 27.6133 12.8613 27.5048 12.6049Z" fill="#E2DDDC"/>
<path d="M30.3814 13.4144C30.8528 13.4536 31.884 14.1749 32.9139 15.1668C32.4926 15.4485 32.2746 15.4619 31.9342 15.1301C31.5937 14.7982 31.3219 14.4516 31.0206 14.1112C30.8137 13.8834 30.6067 13.6581 30.3814 13.4144Z" fill="#A99DB0"/>
<path d="M27.833 13.3715C28.4538 13.3519 28.6608 13.1646 28.9351 12.371C29.6564 12.6882 29.8976 12.8535 30.1034 13.178C29.556 13.0029 29.556 13.0029 29.0294 13.385C28.7183 13.6103 28.4085 13.8381 28.0962 14.0634C28.0458 14.0847 27.9932 14.1007 27.9395 14.1112C27.9126 13.8601 27.8697 13.6152 27.833 13.3715Z" fill="#AB9FB2"/>
<path d="M6.45947 19.1291L6.34697 18.9729L6.45947 19.1291Z" fill="#AEA2B5"/>
</svg>
