<svg width="24" height="24" viewBox="0 0 24 24" fill="none" xmlns="http://www.w3.org/2000/svg">
<path d="M18 0H6C2.68629 0 0 2.68629 0 6V18C0 21.3137 2.68629 24 6 24H18C21.3137 24 24 21.3137 24 18V6C24 2.68629 21.3137 0 18 0Z" fill="#3A3F50"/>
<path d="M17.061 14.1945C16.9215 14.6565 16.836 18.717 16.47 19.002C16.101 19.287 12.4545 18.117 12 18.117C11.5455 18.117 7.899 19.287 7.53 19.002C7.1625 18.717 7.077 14.6565 6.9375 14.1945C6.798 13.734 4.6275 10.395 4.77 9.9345C4.9095 9.474 8.502 8.133 8.8725 7.8495C9.2385 7.5645 11.5455 4.3305 12 4.3305C12.453 4.3305 14.76 7.563 15.1275 7.848C15.4965 8.133 19.0905 9.474 19.23 9.9345C19.3725 10.395 17.202 13.734 17.061 14.1945" fill="#6A3AC2"/>
</svg>
