<svg width="24" height="24" viewBox="0 0 24 24" fill="none" xmlns="http://www.w3.org/2000/svg">
<path d="M18 0H6C2.68629 0 0 2.68629 0 6V18C0 21.3137 2.68629 24 6 24H18C21.3137 24 24 21.3137 24 18V6C24 2.68629 21.3137 0 18 0Z" fill="#3A3F50"/>
<path d="M14.232 10.275H15.672C15.912 10.275 16.0515 10.551 15.9075 10.743L9.84 18.999C9.651 19.2375 9.2685 19.0695 9.3165 18.768L10.362 12.828C10.3697 12.7856 10.368 12.7419 10.3569 12.7003C10.3458 12.6586 10.3256 12.6199 10.2978 12.5869C10.27 12.5539 10.2353 12.5275 10.1961 12.5096C10.1568 12.4916 10.1141 12.4825 10.071 12.483H8.859C8.81596 12.4827 8.7735 12.4731 8.73455 12.4548C8.6956 12.4365 8.66109 12.41 8.63341 12.377C8.60573 12.3441 8.58555 12.3055 8.57425 12.264C8.56296 12.2224 8.56082 12.1789 8.568 12.1365L10.005 4.623C10.0179 4.55561 10.0538 4.4948 10.1066 4.45101C10.1595 4.40722 10.2259 4.38318 10.2945 4.383H15.6735C15.876 4.383 16.0185 4.584 15.948 4.776L13.9575 9.8715C13.9402 9.91618 13.9341 9.96439 13.9396 10.012C13.9451 10.0596 13.9621 10.1051 13.9891 10.1446C14.0161 10.1842 14.0523 10.2166 14.0947 10.239C14.137 10.2615 14.1841 10.2733 14.232 10.2735" fill="#F7AC0A"/>
</svg>
