<svg width="42" height="39" viewBox="0 0 42 39" fill="none" xmlns="http://www.w3.org/2000/svg">
<path d="M29.0795 0.481247H31.4601C31.5208 0.524314 31.5876 0.558065 31.6583 0.581381C34.4111 1.01163 36.599 2.3794 38.2187 4.61976C40.7942 8.18388 41.6938 12.1782 41.0859 16.517C40.4374 21.1441 38.4884 25.1352 35.14 28.4077C32.2771 31.2037 28.834 33.1063 25.1915 34.6732C24.5023 34.9703 23.7601 35.1354 23.0356 35.3621C23.737 34.693 24.4417 34.0295 25.1354 33.3539C25.3787 33.1162 25.5923 32.8477 25.8192 32.5924C26.0614 32.4901 26.3026 32.3822 26.547 32.2843C30.6541 30.6469 34.084 28.1458 36.567 24.443C38.4675 21.6129 39.7701 18.5879 39.8175 15.0964C39.8648 11.5752 38.9927 8.36324 36.9909 5.43404C33.9926 1.04574 28.5763 1.33514 25.8181 3.2586C23.16 5.11163 21.2485 9.38109 23.77 12.9804C24.63 14.2073 25.785 14.8654 27.2935 14.8367C28.5411 14.8136 29.1434 14.1281 29.0939 12.8858C29.0718 12.3103 29.0509 11.7326 29.0795 11.1593C29.1038 10.6806 29.3273 10.2977 29.8426 10.1877C30.3579 10.0776 30.707 10.3538 30.9437 10.7654C32.2309 13.0255 31.5031 15.0722 29.3559 15.9602C27.823 16.5913 26.165 16.8602 24.5111 16.7459C21.657 16.5676 19.446 15.4254 18.2568 12.6635C17.9474 11.9439 17.5114 11.2682 17.0676 10.6168C16.5655 9.88066 15.7892 9.64077 14.9337 9.73651C14.4576 9.78499 13.9916 9.90557 13.5518 10.0941C11.4707 11.0449 9.98864 12.6316 8.9481 14.6299C8.66182 15.1801 8.61777 15.8106 8.75871 16.4543C8.91014 16.3589 9.04144 16.2348 9.1452 16.089C10.1593 14.7334 11.4987 13.6548 13.0398 12.9529C14.61 12.2377 15.2024 12.384 16.3189 13.6748C16.6966 14.1149 17.0896 14.5374 17.4398 14.9952C19.1939 17.2928 21.5865 18.3921 24.3921 18.7277C24.8205 19.9381 25.9051 20.4399 26.9247 21.0176C26.8817 21.0539 26.863 21.0803 26.8377 21.0891C26.7133 21.1309 26.5866 21.1661 26.4622 21.2079C24.8597 21.7319 23.4125 22.6454 22.2505 23.8664C22.0677 24.0601 22.0116 24.3726 21.896 24.6312C21.6165 24.6471 21.3364 24.6471 21.0569 24.6312C18.9175 24.4023 16.8111 24.0073 14.8192 23.1721C13.3338 22.5482 11.8825 21.8406 10.4148 21.1738C9.96552 20.9702 9.51958 20.7524 9.05491 20.5928C8.32708 20.343 7.63229 20.5257 7.15551 21.0825C6.65011 21.6723 6.16452 22.3336 5.88044 23.0456C5.4477 24.1063 5.05681 25.2463 5.42898 26.4072C5.69325 27.2303 6.1392 27.9928 6.49485 28.7873C6.72718 29.3078 7.03109 29.8195 7.1423 30.3664C7.27553 31.02 7.23699 31.7088 7.27333 32.3822C6.92979 32.0752 6.57083 31.7836 6.246 31.459C4.00856 29.2319 1.67203 27.0762 0.630386 23.9545V22.0728C0.677734 21.976 0.732789 21.8825 0.770226 21.7823C1.08955 20.9372 1.33399 20.0536 1.73699 19.2515C3.88365 14.9594 6.86696 11.1393 10.5117 8.01552C11.4617 7.20171 12.5025 6.50017 13.6135 5.92481C15.4622 4.96418 17.3858 4.96858 19.2753 5.916C19.9921 6.27583 20.7068 6.63235 21.4247 6.98887C21.4577 6.95256 21.4907 6.93165 21.4996 6.90414C22.5533 3.59311 24.881 1.65645 28.1535 0.742036C28.4607 0.648504 28.7701 0.565976 29.0795 0.481247Z" fill="#F38ABC"/>
<path d="M24.3926 18.7288C21.5869 18.3932 19.1943 17.2983 17.4402 14.9963C17.09 14.5374 16.697 14.116 16.3193 13.6759C15.2028 12.3851 14.6104 12.2388 13.0402 12.954C11.4991 13.6559 10.1597 14.7345 9.1456 16.0901C9.04184 16.2359 8.91055 16.36 8.75912 16.4554C8.61928 15.8117 8.66222 15.1812 8.94851 14.631C9.98905 12.6316 11.4711 11.0449 13.55 10.0985C13.9898 9.90998 14.4558 9.78939 14.9319 9.74091C15.7874 9.64078 16.5637 9.88066 17.0658 10.6212C17.5063 11.2726 17.9467 11.9483 18.255 12.6679C19.442 15.4299 21.6552 16.572 24.5093 16.7503C26.1632 16.8646 27.8212 16.5957 29.3541 15.9646C31.5035 15.0722 32.2313 13.0255 30.9386 10.7654C30.7019 10.3538 30.3572 10.0765 29.8375 10.1877C29.3178 10.2988 29.0987 10.6806 29.0744 11.1593C29.0458 11.7326 29.0667 12.3103 29.0887 12.8858C29.1383 14.1281 28.5382 14.8136 27.2884 14.8367C25.7854 14.8654 24.6304 14.2073 23.7649 12.9804C21.2434 9.38109 23.1549 5.11163 25.813 3.2586C28.5767 1.33514 33.9931 1.04574 36.9913 5.43294C38.9932 8.36214 39.8652 11.5708 39.8179 15.0953C39.7705 18.5868 38.4679 21.6118 36.5674 24.4419C34.0811 28.1447 30.6512 30.6458 26.5474 32.2832C26.303 32.3811 26.0618 32.489 25.8196 32.5913C25.7238 32.6155 25.6247 32.6309 25.5322 32.6628C22.0681 33.8655 18.5083 34.3783 14.8625 33.9393C13.3496 33.7566 11.8642 33.3286 10.3766 32.9709C9.79305 32.8312 9.31958 32.4648 9.12028 31.8706C8.54257 30.154 7.97991 28.4301 7.43229 26.6988C7.32218 26.3544 7.30016 25.9836 7.2374 25.6237L7.39265 25.5632C7.58975 25.8746 7.78905 26.1849 7.98284 26.4985C8.59726 27.4889 9.16212 28.5232 9.83489 29.4761C10.5026 30.4657 11.5592 31.1256 12.7418 31.2918C13.7856 31.4447 14.8262 31.6296 15.8755 31.7187C18.5864 31.9465 21.2412 31.5999 23.842 30.8186C26.4616 30.1131 28.913 28.8896 31.0509 27.2204C34.9125 24.2064 37.4692 20.398 37.9449 15.4067C38.1155 13.6282 37.8674 11.8345 37.2204 10.169C36.7196 8.46954 35.7756 6.93376 34.4852 5.71904C33.0846 4.39858 31.4286 3.84069 29.4995 4.03986C26.1488 4.38538 23.8068 7.99131 24.888 11.1758C25.0862 11.7579 25.4023 12.2421 26.0013 12.4841C26.3602 12.5711 26.7181 12.724 27.0781 12.7306C27.5979 12.7405 27.7784 12.4478 27.6287 11.9483C27.5329 11.6369 27.3964 11.3365 27.2719 11.0328C26.9119 10.1524 27.0781 9.62867 27.8753 9.10489C28.5698 8.66184 29.359 8.38853 30.1788 8.30712C30.9441 8.37204 31.6312 8.60862 32.1476 9.21273C34.3773 11.825 33.8576 16.3652 30.2152 17.8221C28.3661 18.5539 26.3768 18.8636 24.3926 18.7288Z" fill="#4D4040"/>
<path d="M23.8398 30.8142C21.239 31.5955 18.5842 31.9421 15.8733 31.7143C14.824 31.6252 13.7812 31.4403 12.7396 31.2874C11.5586 31.1244 10.502 30.469 9.83158 29.4838C9.15881 28.5309 8.59395 27.5032 7.97953 26.5062C7.78574 26.1926 7.58644 25.8823 7.38934 25.5709L7.23409 25.6314C7.29685 25.9913 7.31997 26.3621 7.42898 26.7065C7.97733 28.4341 8.53999 30.158 9.11697 31.8783C9.31627 32.4703 9.78974 32.8367 10.3733 32.9786C11.8609 33.3363 13.3463 33.7643 14.8592 33.947C18.505 34.3871 22.0648 33.8732 25.5289 32.6705C25.6214 32.6386 25.7205 32.6232 25.8163 32.599C25.5894 32.8543 25.3758 33.1228 25.1325 33.3605C24.4388 34.0361 23.7341 34.6996 23.0327 35.3687C22.3841 35.9023 21.7653 36.4767 21.0826 36.9631C18.7593 38.6137 16.3138 38.8458 13.8154 37.4033C11.4358 36.0097 9.23852 34.3264 7.27373 32.3921C7.23739 31.7187 7.27373 31.0299 7.1427 30.3763C7.03259 29.8261 6.72758 29.3177 6.49525 28.7972C6.13519 27.9972 5.69475 27.2347 5.42938 26.4116C5.05721 25.2518 5.4481 24.1107 5.88083 23.0499C6.17042 22.338 6.65161 21.6767 7.15591 21.0869C7.63269 20.5301 8.32748 20.3474 9.05531 20.5972C9.51997 20.7568 9.96592 20.9746 10.4152 21.1782C11.8829 21.845 13.3342 22.5526 14.8196 23.1765C16.8115 24.0117 18.9179 24.4067 21.0573 24.6356C21.3368 24.6515 21.6169 24.6515 21.8963 24.6356L21.9977 24.7951C22.7035 25.7723 23.7517 26.1959 24.8462 26.5304C25.378 26.6933 25.9242 26.8121 26.4791 26.9552C25.9341 27.4493 25.4122 27.8773 24.9376 28.3571C24.2769 29.0316 23.8739 29.8459 23.8398 30.8142Z" fill="#D2536F"/>
<path d="M21.9976 24.7918L21.8963 24.6323C22.012 24.3737 22.0681 24.0612 22.2509 23.8675C23.4129 22.6465 24.8601 21.733 26.4626 21.209C26.587 21.1672 26.7137 21.132 26.8381 21.0902C26.8634 21.0814 26.8821 21.055 26.9251 21.0187C25.9055 20.441 24.8209 19.9414 24.3925 18.7288C26.3749 18.8628 28.3623 18.553 30.2097 17.8221C33.8521 16.3652 34.3718 11.825 32.1421 9.21273C31.6257 8.60862 30.9386 8.37204 30.1733 8.30712C29.1776 8.01179 28.1182 8.00721 27.12 8.29392C26.8701 8.37311 26.6418 8.50864 26.4527 8.69005C25.7788 9.31727 25.6731 10.0985 25.9132 10.9513C26.0552 11.4553 26.2578 11.9538 26.0013 12.4808C25.4023 12.2388 25.0862 11.7546 24.888 11.1725C23.8068 7.98801 26.1488 4.38208 29.4994 4.03656C31.4286 3.83739 33.0846 4.39969 34.4852 5.71574C35.7763 6.93168 36.7203 8.46905 37.2204 10.1701C37.1873 10.7621 37.1752 11.3552 37.118 11.9439C36.7623 15.5685 35.1448 18.4999 32.2313 20.6907C29.5941 22.6714 26.5584 23.7388 23.3773 24.4529C22.916 24.5597 22.4579 24.6796 21.9976 24.7918Z" fill="#FCE3C2"/>
<path d="M21.9977 24.7918C22.4579 24.6818 22.916 24.5597 23.3773 24.4562C26.5584 23.7421 29.5941 22.6769 32.2313 20.694C35.1448 18.5032 36.7623 15.5718 37.118 11.9472C37.1752 11.3585 37.1873 10.7654 37.2204 10.1734C37.8674 11.8389 38.1155 13.6326 37.9449 15.4111C37.4692 20.4013 34.9125 24.2141 31.0509 27.2248C28.9116 28.8911 26.4595 30.1117 23.8398 30.8142C23.8739 29.8459 24.2802 29.0316 24.9409 28.3538C25.4111 27.874 25.9319 27.446 26.4824 26.9519C25.9319 26.8088 25.3813 26.69 24.8495 26.5271C23.7528 26.1926 22.7035 25.769 21.9977 24.7918Z" fill="#D8A87D"/>
<path d="M26.0013 12.4841C26.2578 11.9571 26.0552 11.4586 25.9132 10.9546C25.6731 10.1018 25.7788 9.32056 26.4527 8.69335C26.6418 8.51194 26.8701 8.3764 27.12 8.29721C28.1179 8.00943 29.1773 8.01286 30.1733 8.30712C29.3534 8.38853 28.5643 8.66183 27.8698 9.10489C27.0726 9.62867 26.9064 10.1513 27.2664 11.0327C27.3908 11.3365 27.5274 11.6369 27.6232 11.9483C27.7784 12.4478 27.5979 12.7405 27.0726 12.7306C26.7181 12.724 26.3602 12.5711 26.0013 12.4841Z" fill="#D7A77C"/>
</svg>
